<mxfile host="65bd71144e">
    <diagram name="第 1 页" id="LCgw_9DwIGSBX_bPaMVu">
        <mxGraphModel dx="794" dy="281" grid="1" gridSize="10" guides="1" tooltips="1" connect="1" arrows="1" fold="1" page="1" pageScale="1" pageWidth="827" pageHeight="1169" math="0" shadow="0">
            <root>
                <mxCell id="0"/>
                <mxCell id="1" parent="0"/>
                <mxCell id="sFt86SgeWVr_y6U5tek5-58" style="edgeStyle=orthogonalEdgeStyle;rounded=0;orthogonalLoop=1;jettySize=auto;html=1;exitX=0.25;exitY=1;exitDx=0;exitDy=0;entryX=0.25;entryY=0;entryDx=0;entryDy=0;strokeWidth=2;endArrow=blockThin;endFill=1;elbow=vertical;curved=1;dashed=1;" parent="1" source="sFt86SgeWVr_y6U5tek5-4" target="sFt86SgeWVr_y6U5tek5-54" edge="1">
                    <mxGeometry relative="1" as="geometry">
                        <Array as="points">
                            <mxPoint x="205" y="400"/>
                            <mxPoint x="168" y="400"/>
                        </Array>
                    </mxGeometry>
                </mxCell>
                <mxCell id="sFt86SgeWVr_y6U5tek5-59" style="edgeStyle=orthogonalEdgeStyle;rounded=0;orthogonalLoop=1;jettySize=auto;html=1;exitX=0.75;exitY=1;exitDx=0;exitDy=0;entryX=0.25;entryY=0;entryDx=0;entryDy=0;curved=1;strokeWidth=2;endArrow=blockThin;endFill=1;dashed=1;" parent="1" source="sFt86SgeWVr_y6U5tek5-4" target="sFt86SgeWVr_y6U5tek5-55" edge="1">
                    <mxGeometry relative="1" as="geometry">
                        <Array as="points">
                            <mxPoint x="255" y="410"/>
                            <mxPoint x="325" y="410"/>
                        </Array>
                    </mxGeometry>
                </mxCell>
                <mxCell id="sFt86SgeWVr_y6U5tek5-4" value="&lt;font face=&quot;Verdana&quot;&gt;&lt;b&gt;Conv&lt;/b&gt;&lt;/font&gt;&lt;div style=&quot;text-align: left;&quot;&gt;&lt;font color=&quot;#ff0000&quot; face=&quot;Verdana&quot;&gt;Kernel: [11,11]&lt;/font&gt;&lt;/div&gt;&lt;div style=&quot;text-align: left;&quot;&gt;&lt;font face=&quot;Verdana&quot;&gt;strides: [4, 4]&lt;/font&gt;&lt;/div&gt;&lt;div style=&quot;text-align: left;&quot;&gt;&lt;font face=&quot;Verdana&quot;&gt;Pad: 1&lt;/font&gt;&lt;/div&gt;&lt;div style=&quot;text-align: left;&quot;&gt;&lt;font face=&quot;Verdana&quot;&gt;&lt;br&gt;&lt;/font&gt;&lt;/div&gt;" style="rounded=1;whiteSpace=wrap;html=1;strokeWidth=2;fillColor=none;arcSize=5;" parent="1" vertex="1">
                    <mxGeometry x="180" y="300" width="100" height="80" as="geometry"/>
                </mxCell>
                <mxCell id="sFt86SgeWVr_y6U5tek5-6" value="" style="whiteSpace=wrap;html=1;aspect=fixed;strokeWidth=2;fillColor=#f8cecc;strokeColor=#b85450;" parent="1" vertex="1">
                    <mxGeometry x="120" y="147" width="80" height="80" as="geometry"/>
                </mxCell>
                <mxCell id="sFt86SgeWVr_y6U5tek5-7" value="" style="whiteSpace=wrap;html=1;aspect=fixed;strokeWidth=2;fillColor=#d5e8d4;strokeColor=#82b366;" parent="1" vertex="1">
                    <mxGeometry x="130" y="157" width="80" height="80" as="geometry"/>
                </mxCell>
                <mxCell id="sFt86SgeWVr_y6U5tek5-8" value="" style="whiteSpace=wrap;html=1;aspect=fixed;strokeWidth=2;fillColor=#dae8fc;strokeColor=#6c8ebf;" parent="1" vertex="1">
                    <mxGeometry x="140" y="167" width="80" height="80" as="geometry"/>
                </mxCell>
                <mxCell id="sFt86SgeWVr_y6U5tek5-9" value="&lt;font face=&quot;Verdana&quot;&gt;[1,3,224,224]&lt;/font&gt;" style="text;html=1;align=center;verticalAlign=middle;whiteSpace=wrap;rounded=0;" parent="1" vertex="1">
                    <mxGeometry x="118" y="260" width="110" height="30" as="geometry"/>
                </mxCell>
                <mxCell id="sFt86SgeWVr_y6U5tek5-10" value="" style="whiteSpace=wrap;html=1;aspect=fixed;strokeWidth=2;fillColor=#eeeeee;strokeColor=#36393d;" parent="1" vertex="1">
                    <mxGeometry x="286" y="147" width="50" height="50" as="geometry"/>
                </mxCell>
                <mxCell id="sFt86SgeWVr_y6U5tek5-11" value="" style="whiteSpace=wrap;html=1;aspect=fixed;strokeWidth=2;fillColor=#eeeeee;strokeColor=#36393d;" parent="1" vertex="1">
                    <mxGeometry x="296" y="157" width="50" height="50" as="geometry"/>
                </mxCell>
                <mxCell id="sFt86SgeWVr_y6U5tek5-12" value="" style="whiteSpace=wrap;html=1;aspect=fixed;strokeWidth=2;fillColor=#eeeeee;strokeColor=#36393d;" parent="1" vertex="1">
                    <mxGeometry x="306" y="167" width="50" height="50" as="geometry"/>
                </mxCell>
                <mxCell id="sFt86SgeWVr_y6U5tek5-13" value="" style="whiteSpace=wrap;html=1;aspect=fixed;strokeWidth=2;fillColor=#eeeeee;strokeColor=#36393d;" parent="1" vertex="1">
                    <mxGeometry x="316" y="177" width="50" height="50" as="geometry"/>
                </mxCell>
                <mxCell id="sFt86SgeWVr_y6U5tek5-14" value="" style="whiteSpace=wrap;html=1;aspect=fixed;strokeWidth=2;fillColor=#eeeeee;strokeColor=#36393d;" parent="1" vertex="1">
                    <mxGeometry x="326" y="187" width="50" height="50" as="geometry"/>
                </mxCell>
                <mxCell id="sFt86SgeWVr_y6U5tek5-15" value="" style="whiteSpace=wrap;html=1;aspect=fixed;strokeWidth=2;fillColor=#eeeeee;strokeColor=#36393d;" parent="1" vertex="1">
                    <mxGeometry x="336" y="197" width="50" height="50" as="geometry"/>
                </mxCell>
                <mxCell id="sFt86SgeWVr_y6U5tek5-16" value="&lt;font face=&quot;Verdana&quot;&gt;[1,6,54,54]&lt;/font&gt;" style="text;html=1;align=center;verticalAlign=middle;whiteSpace=wrap;rounded=0;" parent="1" vertex="1">
                    <mxGeometry x="286" y="260" width="110" height="30" as="geometry"/>
                </mxCell>
                <mxCell id="sFt86SgeWVr_y6U5tek5-19" value="&lt;font style=&quot;font-size: 14px;&quot; face=&quot;Verdana&quot;&gt;&lt;b&gt;计算图&lt;/b&gt;&lt;/font&gt;" style="text;html=1;align=center;verticalAlign=middle;resizable=0;points=[];autosize=1;strokeColor=none;fillColor=none;" parent="1" vertex="1">
                    <mxGeometry x="10" y="320" width="70" height="30" as="geometry"/>
                </mxCell>
                <mxCell id="sFt86SgeWVr_y6U5tek5-20" value="&lt;font style=&quot;font-size: 14px;&quot; face=&quot;Verdana&quot;&gt;&lt;b&gt;模型&lt;/b&gt;&lt;/font&gt;" style="text;html=1;align=center;verticalAlign=middle;resizable=0;points=[];autosize=1;strokeColor=none;fillColor=none;" parent="1" vertex="1">
                    <mxGeometry x="20" y="187" width="50" height="30" as="geometry"/>
                </mxCell>
                <mxCell id="sFt86SgeWVr_y6U5tek5-22" value="" style="endArrow=blockThin;html=1;rounded=0;entryX=0;entryY=0.5;entryDx=0;entryDy=0;strokeWidth=2;endFill=1;" parent="1" target="sFt86SgeWVr_y6U5tek5-4" edge="1">
                    <mxGeometry width="50" height="50" relative="1" as="geometry">
                        <mxPoint x="120" y="340" as="sourcePoint"/>
                        <mxPoint x="330" y="250" as="targetPoint"/>
                    </mxGeometry>
                </mxCell>
                <mxCell id="sFt86SgeWVr_y6U5tek5-23" value="&lt;font face=&quot;Verdana&quot;&gt;Input&lt;/font&gt;" style="text;html=1;align=center;verticalAlign=middle;whiteSpace=wrap;rounded=0;" parent="1" vertex="1">
                    <mxGeometry x="119" y="310" width="60" height="30" as="geometry"/>
                </mxCell>
                <mxCell id="sFt86SgeWVr_y6U5tek5-42" style="edgeStyle=orthogonalEdgeStyle;rounded=0;orthogonalLoop=1;jettySize=auto;html=1;exitX=1;exitY=0.5;exitDx=0;exitDy=0;strokeWidth=2;endArrow=blockThin;endFill=1;" parent="1" source="sFt86SgeWVr_y6U5tek5-24" target="sFt86SgeWVr_y6U5tek5-38" edge="1">
                    <mxGeometry relative="1" as="geometry"/>
                </mxCell>
                <mxCell id="sFt86SgeWVr_y6U5tek5-62" style="edgeStyle=orthogonalEdgeStyle;rounded=0;orthogonalLoop=1;jettySize=auto;html=1;exitX=0.5;exitY=1;exitDx=0;exitDy=0;curved=1;strokeWidth=2;endArrow=blockThin;endFill=1;dashed=1;" parent="1" source="sFt86SgeWVr_y6U5tek5-24" target="sFt86SgeWVr_y6U5tek5-55" edge="1">
                    <mxGeometry relative="1" as="geometry">
                        <Array as="points">
                            <mxPoint x="409" y="410"/>
                            <mxPoint x="362" y="410"/>
                        </Array>
                    </mxGeometry>
                </mxCell>
                <mxCell id="sFt86SgeWVr_y6U5tek5-24" value="&lt;font face=&quot;Verdana&quot;&gt;&lt;b&gt;MaxPool&lt;/b&gt;&lt;/font&gt;&lt;div style=&quot;text-align: left;&quot;&gt;&lt;font face=&quot;Verdana&quot;&gt;Kernel: [11,11]&lt;/font&gt;&lt;/div&gt;&lt;div style=&quot;text-align: left;&quot;&gt;&lt;font face=&quot;Verdana&quot;&gt;strides: [3, 3]&lt;/font&gt;&lt;/div&gt;&lt;div style=&quot;text-align: left;&quot;&gt;&lt;font face=&quot;Verdana&quot;&gt;Pad: 2&lt;/font&gt;&lt;/div&gt;&lt;div style=&quot;text-align: left;&quot;&gt;&lt;font face=&quot;Verdana&quot;&gt;&lt;br&gt;&lt;/font&gt;&lt;/div&gt;" style="rounded=1;whiteSpace=wrap;html=1;strokeWidth=2;fillColor=none;arcSize=9;" parent="1" vertex="1">
                    <mxGeometry x="360" y="300" width="98" height="80" as="geometry"/>
                </mxCell>
                <mxCell id="sFt86SgeWVr_y6U5tek5-28" value="" style="whiteSpace=wrap;html=1;aspect=fixed;strokeWidth=2;" parent="1" vertex="1">
                    <mxGeometry x="422" y="163" width="28" height="28" as="geometry"/>
                </mxCell>
                <mxCell id="sFt86SgeWVr_y6U5tek5-30" value="" style="whiteSpace=wrap;html=1;aspect=fixed;strokeWidth=2;" parent="1" vertex="1">
                    <mxGeometry x="432" y="173" width="28" height="28" as="geometry"/>
                </mxCell>
                <mxCell id="sFt86SgeWVr_y6U5tek5-31" value="" style="whiteSpace=wrap;html=1;aspect=fixed;strokeWidth=2;" parent="1" vertex="1">
                    <mxGeometry x="442" y="183" width="28" height="28" as="geometry"/>
                </mxCell>
                <mxCell id="sFt86SgeWVr_y6U5tek5-32" value="" style="whiteSpace=wrap;html=1;aspect=fixed;strokeWidth=2;" parent="1" vertex="1">
                    <mxGeometry x="452" y="193" width="28" height="28" as="geometry"/>
                </mxCell>
                <mxCell id="sFt86SgeWVr_y6U5tek5-33" value="" style="whiteSpace=wrap;html=1;aspect=fixed;strokeWidth=2;" parent="1" vertex="1">
                    <mxGeometry x="462" y="203" width="28" height="28" as="geometry"/>
                </mxCell>
                <mxCell id="sFt86SgeWVr_y6U5tek5-34" value="" style="whiteSpace=wrap;html=1;aspect=fixed;strokeWidth=2;" parent="1" vertex="1">
                    <mxGeometry x="472" y="213" width="28" height="28" as="geometry"/>
                </mxCell>
                <mxCell id="sFt86SgeWVr_y6U5tek5-35" value="&lt;font face=&quot;Verdana&quot;&gt;[1,6,26,26]&lt;/font&gt;" style="text;html=1;align=center;verticalAlign=middle;whiteSpace=wrap;rounded=0;" parent="1" vertex="1">
                    <mxGeometry x="412" y="260" width="110" height="30" as="geometry"/>
                </mxCell>
                <mxCell id="sFt86SgeWVr_y6U5tek5-36" value="" style="shape=parallelogram;perimeter=parallelogramPerimeter;whiteSpace=wrap;html=1;fixedSize=1;strokeWidth=2;direction=south;flipH=0;flipV=1;rotation=-30;size=-1;" parent="1" vertex="1">
                    <mxGeometry x="551" y="156.6" width="7" height="100.81" as="geometry"/>
                </mxCell>
                <mxCell id="sFt86SgeWVr_y6U5tek5-37" value="&lt;font face=&quot;Verdana&quot;&gt;[1,4096]&lt;/font&gt;" style="text;html=1;align=center;verticalAlign=middle;whiteSpace=wrap;rounded=0;" parent="1" vertex="1">
                    <mxGeometry x="511" y="260" width="110" height="30" as="geometry"/>
                </mxCell>
                <mxCell id="sFt86SgeWVr_y6U5tek5-43" style="edgeStyle=orthogonalEdgeStyle;rounded=0;orthogonalLoop=1;jettySize=auto;html=1;exitX=1;exitY=0.5;exitDx=0;exitDy=0;entryX=0;entryY=0.5;entryDx=0;entryDy=0;strokeWidth=2;endArrow=blockThin;endFill=1;" parent="1" source="sFt86SgeWVr_y6U5tek5-38" target="sFt86SgeWVr_y6U5tek5-39" edge="1">
                    <mxGeometry relative="1" as="geometry"/>
                </mxCell>
                <mxCell id="sFt86SgeWVr_y6U5tek5-63" style="edgeStyle=orthogonalEdgeStyle;rounded=0;orthogonalLoop=1;jettySize=auto;html=1;exitX=0.5;exitY=1;exitDx=0;exitDy=0;entryX=0.75;entryY=0;entryDx=0;entryDy=0;strokeWidth=2;dashed=1;curved=1;" parent="1" source="sFt86SgeWVr_y6U5tek5-38" target="sFt86SgeWVr_y6U5tek5-54" edge="1">
                    <mxGeometry relative="1" as="geometry">
                        <Array as="points">
                            <mxPoint x="519" y="420"/>
                            <mxPoint x="243" y="420"/>
                        </Array>
                    </mxGeometry>
                </mxCell>
                <mxCell id="sFt86SgeWVr_y6U5tek5-38" value="&lt;div style=&quot;text-align: left;&quot;&gt;&lt;font face=&quot;Verdana&quot;&gt;&lt;b&gt;Flatten&lt;/b&gt;&lt;/font&gt;&lt;/div&gt;&lt;div style=&quot;text-align: left;&quot;&gt;&lt;font face=&quot;Verdana&quot;&gt;&lt;b&gt;&lt;br&gt;&lt;/b&gt;&lt;/font&gt;&lt;/div&gt;&lt;div style=&quot;text-align: left;&quot;&gt;&lt;font face=&quot;Verdana&quot;&gt;&lt;b&gt;&lt;br&gt;&lt;/b&gt;&lt;/font&gt;&lt;/div&gt;&lt;div style=&quot;text-align: left;&quot;&gt;&lt;font face=&quot;Verdana&quot;&gt;&lt;b&gt;&lt;br&gt;&lt;/b&gt;&lt;/font&gt;&lt;/div&gt;&lt;div style=&quot;text-align: left;&quot;&gt;&lt;font face=&quot;Verdana&quot;&gt;&lt;b&gt;&lt;br&gt;&lt;/b&gt;&lt;/font&gt;&lt;/div&gt;" style="rounded=1;whiteSpace=wrap;html=1;strokeWidth=2;fillColor=none;arcSize=9;" parent="1" vertex="1">
                    <mxGeometry x="490" y="300" width="58" height="80" as="geometry"/>
                </mxCell>
                <mxCell id="sFt86SgeWVr_y6U5tek5-49" style="edgeStyle=orthogonalEdgeStyle;rounded=0;orthogonalLoop=1;jettySize=auto;html=1;exitX=1;exitY=0.5;exitDx=0;exitDy=0;strokeWidth=2;endArrow=blockThin;endFill=1;" parent="1" source="sFt86SgeWVr_y6U5tek5-39" edge="1">
                    <mxGeometry relative="1" as="geometry">
                        <mxPoint x="760" y="340" as="targetPoint"/>
                    </mxGeometry>
                </mxCell>
                <mxCell id="sFt86SgeWVr_y6U5tek5-64" style="edgeStyle=orthogonalEdgeStyle;rounded=0;orthogonalLoop=1;jettySize=auto;html=1;exitX=0.25;exitY=1;exitDx=0;exitDy=0;entryX=0.75;entryY=0;entryDx=0;entryDy=0;strokeWidth=2;endArrow=blockThin;endFill=1;curved=1;dashed=1;" parent="1" source="sFt86SgeWVr_y6U5tek5-39" target="sFt86SgeWVr_y6U5tek5-55" edge="1">
                    <mxGeometry relative="1" as="geometry">
                        <Array as="points">
                            <mxPoint x="610" y="430"/>
                            <mxPoint x="399" y="430"/>
                        </Array>
                    </mxGeometry>
                </mxCell>
                <mxCell id="sFt86SgeWVr_y6U5tek5-65" style="edgeStyle=orthogonalEdgeStyle;rounded=0;orthogonalLoop=1;jettySize=auto;html=1;exitX=0.75;exitY=1;exitDx=0;exitDy=0;entryX=0.75;entryY=0;entryDx=0;entryDy=0;strokeWidth=2;curved=1;endArrow=blockThin;endFill=1;dashed=1;" parent="1" source="sFt86SgeWVr_y6U5tek5-39" target="sFt86SgeWVr_y6U5tek5-56" edge="1">
                    <mxGeometry relative="1" as="geometry">
                        <Array as="points">
                            <mxPoint x="670" y="430"/>
                            <mxPoint x="557" y="430"/>
                        </Array>
                    </mxGeometry>
                </mxCell>
                <mxCell id="sFt86SgeWVr_y6U5tek5-39" value="&lt;div style=&quot;&quot;&gt;&lt;font face=&quot;Verdana&quot;&gt;&lt;b&gt;Gemm&lt;/b&gt;&lt;/font&gt;&lt;/div&gt;&lt;div style=&quot;text-align: left;&quot;&gt;&lt;span style=&quot;background-color: initial; color: rgb(255, 0, 0); font-family: Verdana;&quot;&gt;Kernel: [4096,10]&lt;/span&gt;&lt;/div&gt;&lt;div style=&quot;text-align: left;&quot;&gt;&lt;font color=&quot;#ff0000&quot; face=&quot;Verdana&quot;&gt;Bias: [1,10]&lt;/font&gt;&lt;/div&gt;&lt;div style=&quot;text-align: left;&quot;&gt;&lt;font face=&quot;Verdana&quot;&gt;&lt;br&gt;&lt;/font&gt;&lt;/div&gt;&lt;div style=&quot;text-align: left;&quot;&gt;&lt;font face=&quot;Verdana&quot;&gt;&lt;br&gt;&lt;/font&gt;&lt;/div&gt;" style="rounded=1;whiteSpace=wrap;html=1;strokeWidth=2;fillColor=none;arcSize=9;" parent="1" vertex="1">
                    <mxGeometry x="580" y="300" width="120" height="80" as="geometry"/>
                </mxCell>
                <mxCell id="sFt86SgeWVr_y6U5tek5-41" style="edgeStyle=orthogonalEdgeStyle;rounded=0;orthogonalLoop=1;jettySize=auto;html=1;exitX=1;exitY=0.5;exitDx=0;exitDy=0;strokeWidth=2;endArrow=blockThin;endFill=1;" parent="1" source="sFt86SgeWVr_y6U5tek5-40" target="sFt86SgeWVr_y6U5tek5-24" edge="1">
                    <mxGeometry relative="1" as="geometry"/>
                </mxCell>
                <mxCell id="sFt86SgeWVr_y6U5tek5-60" style="edgeStyle=orthogonalEdgeStyle;rounded=0;orthogonalLoop=1;jettySize=auto;html=1;exitX=0.25;exitY=1;exitDx=0;exitDy=0;entryX=0.5;entryY=0;entryDx=0;entryDy=0;endArrow=classicThin;endFill=1;curved=1;strokeWidth=2;dashed=1;" parent="1" source="sFt86SgeWVr_y6U5tek5-40" target="sFt86SgeWVr_y6U5tek5-54" edge="1">
                    <mxGeometry relative="1" as="geometry">
                        <Array as="points">
                            <mxPoint x="298" y="400"/>
                            <mxPoint x="205" y="400"/>
                        </Array>
                    </mxGeometry>
                </mxCell>
                <mxCell id="sFt86SgeWVr_y6U5tek5-61" style="edgeStyle=orthogonalEdgeStyle;rounded=0;orthogonalLoop=1;jettySize=auto;html=1;exitX=0.75;exitY=1;exitDx=0;exitDy=0;entryX=0.25;entryY=0;entryDx=0;entryDy=0;dashed=1;curved=1;endArrow=blockThin;endFill=1;strokeWidth=2;" parent="1" source="sFt86SgeWVr_y6U5tek5-40" target="sFt86SgeWVr_y6U5tek5-56" edge="1">
                    <mxGeometry relative="1" as="geometry">
                        <Array as="points">
                            <mxPoint x="319" y="400"/>
                            <mxPoint x="482" y="400"/>
                        </Array>
                    </mxGeometry>
                </mxCell>
                <mxCell id="sFt86SgeWVr_y6U5tek5-40" value="&lt;div style=&quot;text-align: left;&quot;&gt;&lt;font face=&quot;Verdana&quot;&gt;&lt;b&gt;Relu&lt;/b&gt;&lt;/font&gt;&lt;/div&gt;&lt;div style=&quot;text-align: left;&quot;&gt;&lt;font face=&quot;Verdana&quot;&gt;&lt;b&gt;&lt;br&gt;&lt;/b&gt;&lt;/font&gt;&lt;/div&gt;&lt;div style=&quot;text-align: left;&quot;&gt;&lt;font face=&quot;Verdana&quot;&gt;&lt;b&gt;&lt;br&gt;&lt;/b&gt;&lt;/font&gt;&lt;/div&gt;&lt;div style=&quot;text-align: left;&quot;&gt;&lt;br&gt;&lt;/div&gt;&lt;div style=&quot;text-align: left;&quot;&gt;&lt;br&gt;&lt;/div&gt;" style="rounded=1;whiteSpace=wrap;html=1;strokeWidth=2;fillColor=none;arcSize=9;" parent="1" vertex="1">
                    <mxGeometry x="287" y="300" width="43" height="80" as="geometry"/>
                </mxCell>
                <mxCell id="sFt86SgeWVr_y6U5tek5-44" value="&lt;font face=&quot;Verdana&quot;&gt;&lt;span style=&quot;font-size: 14px;&quot;&gt;&lt;b&gt;算子&lt;/b&gt;&lt;/span&gt;&lt;/font&gt;" style="text;html=1;align=center;verticalAlign=middle;resizable=0;points=[];autosize=1;strokeColor=none;fillColor=none;" parent="1" vertex="1">
                    <mxGeometry x="20" y="460" width="50" height="30" as="geometry"/>
                </mxCell>
                <mxCell id="sFt86SgeWVr_y6U5tek5-47" value="" style="shape=parallelogram;perimeter=parallelogramPerimeter;whiteSpace=wrap;html=1;fixedSize=1;strokeWidth=2;direction=south;flipH=0;flipV=1;rotation=-30;size=-1;" parent="1" vertex="1">
                    <mxGeometry x="652.5" y="193.28" width="7" height="34" as="geometry"/>
                </mxCell>
                <mxCell id="sFt86SgeWVr_y6U5tek5-48" value="&lt;font face=&quot;Verdana&quot;&gt;[1,10]&lt;/font&gt;" style="text;html=1;align=center;verticalAlign=middle;whiteSpace=wrap;rounded=0;" parent="1" vertex="1">
                    <mxGeometry x="621" y="260.4" width="110" height="30" as="geometry"/>
                </mxCell>
                <mxCell id="sFt86SgeWVr_y6U5tek5-50" value="&lt;font face=&quot;Verdana&quot;&gt;Output&lt;/font&gt;" style="text;html=1;align=center;verticalAlign=middle;whiteSpace=wrap;rounded=0;" parent="1" vertex="1">
                    <mxGeometry x="700" y="310" width="60" height="30" as="geometry"/>
                </mxCell>
                <mxCell id="sFt86SgeWVr_y6U5tek5-53" value="&lt;b&gt;RunTime&lt;/b&gt;&lt;div&gt;&lt;b&gt;&lt;br&gt;&lt;/b&gt;&lt;/div&gt;&lt;div&gt;&lt;b&gt;&lt;br&gt;&lt;/b&gt;&lt;/div&gt;&lt;div&gt;&lt;b&gt;&lt;br&gt;&lt;/b&gt;&lt;/div&gt;&lt;div&gt;&lt;b&gt;&lt;br&gt;&lt;/b&gt;&lt;/div&gt;&lt;div&gt;&lt;br&gt;&lt;/div&gt;" style="rounded=1;whiteSpace=wrap;html=1;fillColor=none;strokeWidth=2;arcSize=8;" parent="1" vertex="1">
                    <mxGeometry x="120" y="440" width="580" height="90" as="geometry"/>
                </mxCell>
                <mxCell id="sFt86SgeWVr_y6U5tek5-54" value="&lt;b&gt;CPU&lt;/b&gt;&lt;div style=&quot;&quot;&gt;relu_float32_cpu()&lt;/div&gt;&lt;div style=&quot;&quot;&gt;flatten_float32_avx()&lt;/div&gt;&lt;div style=&quot;&quot;&gt;conv_float32_neon()&lt;/div&gt;" style="rounded=1;whiteSpace=wrap;html=1;strokeWidth=2;fillColor=none;arcSize=8;" parent="1" vertex="1">
                    <mxGeometry x="130" y="460" width="150" height="60" as="geometry"/>
                </mxCell>
                <mxCell id="sFt86SgeWVr_y6U5tek5-55" value="&lt;b&gt;GPU&lt;/b&gt;&lt;div&gt;gemm_float32_cuda()&lt;/div&gt;&lt;div&gt;conv_float32_cuda()&lt;/div&gt;&lt;div&gt;maxpool_float32_cuda()&lt;/div&gt;" style="rounded=1;whiteSpace=wrap;html=1;strokeWidth=2;fillColor=none;arcSize=8;" parent="1" vertex="1">
                    <mxGeometry x="287" y="460" width="150" height="60" as="geometry"/>
                </mxCell>
                <mxCell id="sFt86SgeWVr_y6U5tek5-56" value="&lt;b&gt;NPU&lt;/b&gt;&lt;div&gt;gemm_float32_metal()&lt;br&gt;&lt;div&gt;gemm_float32_rvx()&lt;/div&gt;&lt;div&gt;relu_float32_rvx()&lt;/div&gt;&lt;/div&gt;" style="rounded=1;whiteSpace=wrap;html=1;strokeWidth=2;fillColor=none;arcSize=8;" parent="1" vertex="1">
                    <mxGeometry x="444" y="460" width="150" height="60" as="geometry"/>
                </mxCell>
                <mxCell id="sFt86SgeWVr_y6U5tek5-57" value="&lt;b&gt;......&lt;/b&gt;" style="rounded=1;whiteSpace=wrap;html=1;strokeWidth=2;fillColor=none;arcSize=8;" parent="1" vertex="1">
                    <mxGeometry x="601" y="460" width="89" height="60" as="geometry"/>
                </mxCell>
                <mxCell id="sFt86SgeWVr_y6U5tek5-66" value="&lt;font face=&quot;Verdana&quot;&gt;&lt;span style=&quot;font-size: 14px;&quot;&gt;&lt;b&gt;硬件&lt;/b&gt;&lt;/span&gt;&lt;/font&gt;" style="text;html=1;align=center;verticalAlign=middle;resizable=0;points=[];autosize=1;strokeColor=none;fillColor=none;" parent="1" vertex="1">
                    <mxGeometry x="20" y="564" width="50" height="30" as="geometry"/>
                </mxCell>
                <mxCell id="sFt86SgeWVr_y6U5tek5-70" value="" style="shape=image;verticalLabelPosition=bottom;labelBackgroundColor=default;verticalAlign=top;aspect=fixed;imageAspect=0;image=data:image/svg+xml,PHN2ZyB4bWxuczp4bGluaz0iaHR0cDovL3d3dy53My5vcmcvMTk5OS94bGluayIgeG1sbnM9Imh0dHA6Ly93d3cudzMub3JnLzIwMDAvc3ZnIiB4bWw6c3BhY2U9InByZXNlcnZlIiB2aWV3Qm94PSIwIDAgMjMzLjAzOSAyMzMuMDM5IiBpZD0iQ2FwYV8xIiB2ZXJzaW9uPSIxLjEiIHdpZHRoPSI4MDBweCIgaGVpZ2h0PSI4MDBweCIgZmlsbD0iIzAwMDAwMCI+JiN4YTs8cGF0aCBkPSJNMCwzOC40MTNoMzYuMTIxdjE0NC43MTNIMjAuNDE2di0xMy4wMTJoLTYuNDE4di0zNy4xNTVoNi40MTh2LTI3LjAxM2gtNi40MThWNjguNzkyaDYuNDE4VjU0LjExOEgwVjM4LjQxM3omIzEwOyYjOTsgTTIzMy4wMzksODcuNjg3VjE2OS42YzAsNi45MzgtNS42MjQsMTIuNTY2LTEyLjU2MywxMi41NjZoLTAuMDEzdjEyLjQ2aC04MC4yMjF2LTEyLjQ2aC03LjYxMnYxMi40Nkg1Mi40MDl2LTEyLjQ2aC03LjAzNFY3NS4xMjUmIzEwOyYjOTtoMTc1LjEwMUMyMjcuNDE1LDc1LjEyNSwyMzMuMDM5LDgwLjc0OSwyMzMuMDM5LDg3LjY4N3ogTTYyLjUyLDE4MS41NDJoLTR2OWg0VjE4MS41NDJ6IE03MC41MiwxODEuNTQyaC00djloNFYxODEuNTQyeiYjMTA7JiM5OyBNNzguNTIsMTgxLjU0MmgtNHY5aDRWMTgxLjU0MnogTTg2LjUyLDE4MS41NDJoLTR2OWg0VjE4MS41NDJ6IE04OC45ODYsMTI4LjgwNWgtOS45ODh2My45MjVoNS41NTl2MS45NDMmIzEwOyYjOTtjLTIuMTUxLDIuNTE0LTQuNTYsMy43Ny03LjIyOSwzLjc3Yy0xLjE2NiwwLTIuMjQ4LTAuMjM5LTMuMjQ1LTAuNzJjLTAuOTk4LTAuNDc5LTEuODU5LTEuMTMzLTIuNTg0LTEuOTYyJiMxMDsmIzk7Yy0wLjcyNi0wLjgyOS0xLjI5Ny0xLjgwOC0xLjcxMS0yLjkzNWMtMC40MTQtMS4xMjctMC42MjEtMi4zMzgtMC42MjEtMy42MzRjMC0xLjI0NCwwLjE4OC0yLjQyMywwLjU2My0zLjUzNyYjMTA7JiM5O2MwLjM3Ni0xLjExMywwLjkwNy0yLjA5OSwxLjU5NC0yLjk1NGMwLjY4Ny0wLjg1NCwxLjUxNi0xLjUyOCwyLjQ4OC0yLjAyMWMwLjk3MS0wLjQ5MiwyLjA0LTAuNzM4LDMuMjA2LTAuNzM4JiMxMDsmIzk7YzEuNDc2LDAsMi44NDMsMC4zNjIsNC4xMDEsMS4wODhjMS4yNTYsMC43MjYsMi4yMzQsMS43NzUsMi45MzQsMy4xNDhsNC4wMDQtMi45NTRjLTAuOTM0LTEuODQtMi4zMjYtMy4zMDQtNC4xNzktNC4zOTImIzEwOyYjOTtjLTEuODUzLTEuMDg5LTQuMDc1LTEuNjMzLTYuNjY1LTEuNjMzYy0xLjkxOCwwLTMuNjkyLDAuMzY5LTUuMzI0LDEuMTA3Yy0xLjYzMywwLjczOS0zLjA1MiwxLjczNi00LjI1NiwyLjk5MyYjMTA7JiM5O2MtMS4yMDUsMS4yNTctMi4xNTEsMi43MjEtMi44MzgsNC4zOTJjLTAuNjg3LDEuNjcxLTEuMDI5LDMuNDUzLTEuMDI5LDUuMzQ0YzAsMS45OTYsMC4zNDMsMy44NTQsMS4wMjksNS41NzcmIzEwOyYjOTtjMC42ODcsMS43MjQsMS42MTksMy4yMjEsMi43OTksNC40ODljMS4xNzgsMS4yNywyLjU2NCwyLjI2OCw0LjE1OCwyLjk5M2MxLjU5NCwwLjcyNiwzLjI5NywxLjA4OCw1LjExMSwxLjA4OCYjMTA7JiM5O2MyLjkyOCwwLDUuNDkyLTEuMTAxLDcuNjk1LTMuMzA0djMuMTA5aDQuNDNWMTI4LjgwNXogTTk0LjUyLDE4MS41NDJoLTR2OWg0VjE4MS41NDJ6IE0xMDIuNTIsMTgxLjU0MmgtNHY5aDRWMTgxLjU0MnomIzEwOyYjOTsgTTExMC41MiwxODEuNTQyaC00djloNFYxODEuNTQyeiBNMTEyLjExMSwxMTUuMzk2SDkzLjU3MnYyNy41OTVoNS4zNjN2LTExLjQyN2gxMC45NjF2LTQuMzUzSDk4LjkzNnYtNy4xMTJoMTMuMTc2VjExNS4zOTZ6JiMxMDsmIzk7IE0xMTguNTIsMTgxLjU0MmgtNHY5aDRWMTgxLjU0MnogTTEyNi41MiwxODEuNTQyaC00djloNFYxODEuNTQyeiBNMTI4LjM5NiwxMjkuMzg4bDkuODMzLTEzLjk5MmgtNS43OTFsLTYuODQsMTAuMjYxbC02Ljg4LTEwLjI2MSYjMTA7JiM5O2gtNS44MjlsOS44MzMsMTMuOTkybC05LjUyMiwxMy42MDJoNS44M2w2LjU2OC05Ljg3Mmw2LjUyOSw5Ljg3Mmg1Ljc5MUwxMjguMzk2LDEyOS4zODh6IE0xNTAuMzU0LDE4MS41NDJoLTR2OWg0VjE4MS41NDJ6JiMxMDsmIzk7IE0xNTguMzU0LDE4MS41NDJoLTR2OWg0VjE4MS41NDJ6IE0xNjYuMzU0LDE4MS41NDJoLTR2OWg0VjE4MS41NDJ6IE0xNzQuMzU0LDE4MS41NDJoLTR2OWg0VjE4MS41NDJ6IE0xODIuMzU0LDE4MS41NDJoLTR2OWg0JiMxMDsmIzk7VjE4MS41NDJ6IE0xOTAuMzU0LDE4MS41NDJoLTR2OWg0VjE4MS41NDJ6IE0xOTguMzU0LDE4MS41NDJoLTR2OWg0VjE4MS41NDJ6IE0yMDYuMzU0LDE4MS41NDJoLTR2OWg0VjE4MS41NDJ6IE0yMTQuMzU0LDE4MS41NDImIzEwOyYjOTtoLTR2OWg0VjE4MS41NDJ6IE0yMTcuNzI3LDEzMC42OTVjMC0xOS4zMjgtMTUuNjctMzUtMzUtMzVjLTE5LjMzLDAtMzUsMTUuNjcyLTM1LDM1YzAsMTkuMzI3LDE1LjY3LDM1LDM1LDM1JiMxMDsmIzk7QzIwMi4wNTcsMTY1LjY5NSwyMTcuNzI3LDE1MC4wMjIsMjE3LjcyNywxMzAuNjk1eiBNMjAxLjU3NSwxMzEuMjUyYzAuODYxLTAuNDY0LDEuNzIzLTAuOTI0LDIuNTctMS4zODEmIzEwOyYjOTtjMC44NDEtMC40NzksMS42Ny0wLjk1MSwyLjQ3MS0xLjQwOGMwLjgwNC0wLjQ2LDEuNTgzLTAuOTAyLDIuMzEzLTEuMzZjMC4wNTctMC4wMzQsMC4xMTEtMC4wNjgsMC4xNjctMC4xMDQmIzEwOyYjOTtjLTAuOTI4LTYuNjg0LTQuMzM1LTEyLjU3OC05LjI2OC0xNi43MTNjLTAuMDY4LDAuMDkyLTAuMTQsMC4xOTItMC4yMTIsMC4yODhjLTAuMzA3LDAuNDI0LTAuNjUyLDAuODk2LTEuMDI4LDEuNDEzJiMxMDsmIzk7Yy0wLjQwMiwwLjUyLTAuODM1LDEuMDgyLTEuMjk2LDEuNjc5Yy0wLjQ1MiwwLjYtMC45NjQsMS4yMi0xLjQ5MywxLjg2NGMtMC41MywwLjY0Ny0xLjA3OCwxLjMxNC0xLjYzNCwxLjk5NiYjMTA7JiM5O2MtMC41ODEsMC42NjQtMS4xNywxLjM0Mi0xLjc2MSwyLjAyM2MtMC4wMDIsMC0wLjAwNCwwLjAwMy0wLjAwNywwLjAwN2MwLjA0MS0wLjY1OCwwLjA4Mi0xLjMyNiwwLjEyNS0yLjAwMyYjMTA7JiM5O2MwLjA1Ny0wLjk1NywwLjA3Mi0xLjkzLDAuMTA5LTIuOTAzYzAuMDMxLTAuOTc3LDAuMDYzLTEuOTUzLDAuMDkzLTIuOTE0YzAuMDA1LTAuOTcxLDAuMDA4LTEuOTIzLDAuMDEyLTIuODQ3JiMxMDsmIzk7YzAuMDA2LTAuOTI3LDAuMDEtMS44MjQtMC4wMjEtMi42ODRjMC0wLjA3LTAuMDAzLTAuMTMtMC4wMDUtMC4xOThjLTMuMDg1LTEuMjUxLTYuNDUyLTEuOTQxLTkuOTg0LTEuOTQxJiMxMDsmIzk7Yy0zLjIwOCwwLTYuMjgxLDAuNTY3LTkuMTMsMS42MDRjMC4wNDksMC4xMDksMC4wOTksMC4yMjQsMC4xNSwwLjMzN2MwLjIxMSwwLjQ3OCwwLjQ1LDEuMDEzLDAuNzEsMS42JiMxMDsmIzk7YzAuMjQ5LDAuNjA2LDAuNTIsMS4yNjMsMC44MDUsMS45NmMwLjI5NCwwLjY5MiwwLjU3NiwxLjQ0NCwwLjg2OCwyLjIyNGMwLjI5NSwwLjc4NiwwLjYsMS41OTEsMC45MDgsMi40MTEmIzEwOyYjOTtjMC4yODgsMC44MzgsMC41OCwxLjY4OCwwLjg3MywyLjUzOGMwLjAwMSwwLjAwNCwwLjAwMiwwLjAwNSwwLjAwNSwwLjAxMmMtMC41NTEtMC4zNjYtMS4xMDctMC43MzUtMS42NzUtMS4xMTImIzEwOyYjOTtjLTAuNzk4LTAuNTI2LTEuNjMxLTEuMDI3LTIuNDU4LTEuNTQ3Yy0wLjgzLTAuNTEzLTEuNjYxLTEuMDI5LTIuNDc4LTEuNTM2Yy0wLjgzOC0wLjQ4Ny0xLjY2MS0wLjk2OS0yLjQ1OS0xLjQzNCYjMTA7JiM5O2MtMC43OTktMC40NjctMS41NzMtMC45MTgtMi4zMzMtMS4zMjNjLTAuMDU5LTAuMDMyLTAuMTEyLTAuMDYtMC4xNy0wLjA5NGMtNS4wODcsMy45NzctOC42ODgsOS43Ni05Ljg0MywxNi4zODYmIzEwOyYjOTtjMC4xMTUsMC4wMTIsMC4yMzUsMC4wMjUsMC4zNTYsMC4wMzVjMC41MTcsMC4wNTYsMS4xMDIsMC4xMTksMS43MzksMC4xODdjMC42NSwwLjA4NiwxLjM1NCwwLjE4MiwyLjEsMC4yODQmIzEwOyYjOTtjMC43NDUsMC4wODksMS41MzgsMC4yMjQsMi4zNjEsMC4zNmMwLjgyNCwwLjEzNywxLjY3OCwwLjI3NSwyLjU0MywwLjQxOWMwLjg2OCwwLjE2OSwxLjc1LDAuMzQxLDIuNjMyLDAuNTEzJiMxMDsmIzk7YzAuMDA0LDAsMC4wMDcsMCwwLjAxMiwwYy0wLjU5LDAuMjk0LTEuMTg4LDAuNTkyLTEuNzk5LDAuODk2Yy0wLjg1NSwwLjQyOC0xLjcwMywwLjg5OS0yLjU2NywxLjM1NCYjMTA7JiM5O2MtMC44NjEsMC40NjMtMS43MjMsMC45MjMtMi41NywxLjM4Yy0wLjg0MiwwLjQ3OS0xLjY3MSwwLjk1MS0yLjQ3MSwxLjQxMWMtMC44MDQsMC40NTctMS41ODMsMC45MDItMi4zMTIsMS4zNTgmIzEwOyYjOTtjLTAuMDU4LDAuMDM0LTAuMTEyLDAuMDY2LTAuMTY5LDAuMTAyYzAuOTI5LDYuNjg2LDQuMzM2LDEyLjU3OCw5LjI2OSwxNi43MTRjMC4wNjgtMC4wOTIsMC4xNDEtMC4xOTEsMC4yMTItMC4yODkmIzEwOyYjOTtjMC4zMDctMC40MjIsMC42NTItMC44OTUsMS4wMjgtMS40MTNjMC40MDEtMC41MiwwLjgzNi0xLjA4MSwxLjI5Ni0xLjY3N2MwLjQ1Mi0wLjYwMiwwLjk2NC0xLjIyMiwxLjQ5My0xLjg2NCYjMTA7JiM5O2MwLjUzLTAuNjQ4LDEuMDc3LTEuMzE1LDEuNjM0LTEuOTk0YzAuNTgxLTAuNjY1LDEuMTctMS4zNDUsMS43NjEtMi4wMjNjMC4wMDEtMC4wMDIsMC4wMDQtMC4wMDcsMC4wMDctMC4wMDkmIzEwOyYjOTtjLTAuMDQxLDAuNjU3LTAuMDgyLDEuMzI0LTAuMTI0LDIuMDAzYy0wLjA1OCwwLjk1Ny0wLjA3NCwxLjkyOC0wLjExLDIuOTAzYy0wLjAzMiwwLjk3Ni0wLjA2MywxLjk1NC0wLjA5NCwyLjkxNCYjMTA7JiM5O2MtMC4wMDQsMC45NjktMC4wMDcsMS45MjQtMC4wMTEsMi44NDZjLTAuMDA2LDAuOTI4LTAuMDEsMS44MjMsMC4wMiwyLjY4NGMwLjAwMSwwLjA2OSwwLjAwNCwwLjEzMSwwLjAwNCwwLjE5NyYjMTA7JiM5O2MzLjA4NSwxLjI1Miw2LjQ1MywxLjk0Miw5Ljk4NSwxLjk0MmMzLjIwOCwwLDYuMjgxLTAuNTY2LDkuMTI5LTEuNjA1Yy0wLjA0OS0wLjEwOC0wLjA5Ny0wLjIyMy0wLjE0OS0wLjMzNyYjMTA7JiM5O2MtMC4yMTEtMC40NzYtMC40NS0xLjAxMi0wLjcxLTEuNTk4Yy0wLjI0OS0wLjYwNy0wLjUyLTEuMjY1LTAuODA0LTEuOTU5Yy0wLjI5NC0wLjY5My0wLjU3Ny0xLjQ0Ny0wLjg2OC0yLjIyNSYjMTA7JiM5O2MtMC4yOTUtMC43ODQtMC42MDEtMS41OTMtMC45MDgtMi40MTNjLTAuMjg5LTAuODM3LTAuNTgxLTEuNjg4LTAuODc0LTIuNTM2Yy0wLjAwMS0wLjAwMy0wLjAwMi0wLjAwNy0wLjAwNC0wLjAxMyYjMTA7JiM5O2MwLjU1LDAuMzY4LDEuMTA2LDAuNzM1LDEuNjc0LDEuMTEzYzAuNzk3LDAuNTI0LDEuNjMxLDEuMDI1LDIuNDU4LDEuNTQ1YzAuODMsMC41MTQsMS42NjEsMS4wMywyLjQ3OCwxLjUzOCYjMTA7JiM5O2MwLjgzOCwwLjQ4NywxLjY2MSwwLjk2OSwyLjQ1OCwxLjQzNGMwLjgsMC40NjUsMS41NzMsMC45MTgsMi4zMzMsMS4zMjFjMC4wNiwwLjAzNCwwLjExMywwLjA2MiwwLjE3LDAuMDk1JiMxMDsmIzk7YzUuMDg4LTMuOTc4LDguNjg4LTkuNzU4LDkuODQ0LTE2LjM4NWMtMC4xMTUtMC4wMTMtMC4yMzUtMC4wMjYtMC4zNTYtMC4wMzZjLTAuNTE4LTAuMDU2LTEuMTAxLTAuMTE3LTEuNzM5LTAuMTg1JiMxMDsmIzk7Yy0wLjY1LTAuMDg4LTEuMzU1LTAuMTgzLTIuMS0wLjI4N2MtMC43NDYtMC4wODctMS41MzgtMC4yMjEtMi4zNjEtMC4zNTdjLTAuODI0LTAuMTM3LTEuNjc4LTAuMjc2LTIuNTQzLTAuNDImIzEwOyYjOTtjLTAuODY4LTAuMTY5LTEuNzUtMC4zNDItMi42MzItMC41MTNjLTAuMDA0LDAtMC4wMDcsMC0wLjAxMiwwYzAuNTktMC4yOTYsMS4xODgtMC41OTMsMS43OTgtMC44OTgmIzEwOyYjOTtDMTk5Ljg2MiwxMzIuMTc5LDIwMC43MTEsMTMxLjcwNiwyMDEuNTc1LDEzMS4yNTJ6Ii8+JiN4YTs8L3N2Zz4=;" parent="1" vertex="1">
                    <mxGeometry x="310" y="536" width="98" height="98" as="geometry"/>
                </mxCell>
                <mxCell id="sFt86SgeWVr_y6U5tek5-71" value="" style="shape=image;verticalLabelPosition=bottom;labelBackgroundColor=default;verticalAlign=top;aspect=fixed;imageAspect=0;image=data:image/svg+xml,PHN2ZyB4bWxuczp4bGluaz0iaHR0cDovL3d3dy53My5vcmcvMTk5OS94bGluayIgeG1sbnM9Imh0dHA6Ly93d3cudzMub3JnLzIwMDAvc3ZnIiB4bWw6c3BhY2U9InByZXNlcnZlIiB2aWV3Qm94PSIwIDAgOTQyIDk0MiIgaGVpZ2h0PSI4MDBweCIgd2lkdGg9IjgwMHB4IiBpZD0iQ2FwYV8xIiB2ZXJzaW9uPSIxLjEiIGZpbGw9IiMwMDAwMDAiPiYjeGE7PGc+JiN4YTsJPGc+JiN4YTsJCTxwYXRoIGQ9Ik01NzkuMSw4OTRjMCwyNi41LDIxLjUsNDgsNDgsNDhzNDgtMjEuNSw0OC00OHYtNzcuNUg1NzkuMlY4OTRINTc5LjF6Ii8+JiN4YTsJCTxwYXRoIGQ9Ik01NzkuMSw0OHY3Ny41SDY3NVY0OGMwLTI2LjUtMjEuNS00OC00OC00OFM1NzkuMSwyMS41LDU3OS4xLDQ4eiIvPiYjeGE7CQk8cGF0aCBkPSJNNDIzLDQ4djc3LjVoOTZWNDhjMC0yNi41LTIxLjUtNDgtNDgtNDhTNDIzLDIxLjUsNDIzLDQ4eiIvPiYjeGE7CQk8cGF0aCBkPSJNNDIzLDg5NGMwLDI2LjUsMjEuNSw0OCw0OCw0OHM0OC0yMS41LDQ4LTQ4di03Ny41aC05NlY4OTR6Ii8+JiN4YTsJCTxwYXRoIGQ9Ik0yNjcsNDh2NzcuNWg5NS45VjQ4YzAtMjYuNS0yMS41LTQ4LTQ4LTQ4UzI2NywyMS41LDI2Nyw0OHoiLz4mI3hhOwkJPHBhdGggZD0iTTI2Nyw4OTRjMCwyNi41LDIxLjUsNDgsNDgsNDhzNDgtMjEuNSw0OC00OHYtNzcuNWgtOTZWODk0eiIvPiYjeGE7CQk8cGF0aCBkPSJNMCw2MjdjMCwyNi41LDIxLjUsNDgsNDgsNDhoNzcuNXYtOTUuOUg0OEMyMS41LDU3OS4xLDAsNjAwLjUsMCw2Mjd6Ii8+JiN4YTsJCTxwYXRoIGQ9Ik04OTQsNTc5LjFoLTc3LjVWNjc1SDg5NGMyNi41LDAsNDgtMjEuNSw0OC00OFM5MjAuNSw1NzkuMSw4OTQsNTc5LjF6Ii8+JiN4YTsJCTxwYXRoIGQ9Ik0wLDQ3MWMwLDI2LjUsMjEuNSw0OCw0OCw0OGg3Ny41di05Nkg0OEMyMS41LDQyMywwLDQ0NC41LDAsNDcxeiIvPiYjeGE7CQk8cGF0aCBkPSJNODk0LDQyM2gtNzcuNXY5Nkg4OTRjMjYuNSwwLDQ4LTIxLjUsNDgtNDhTOTIwLjUsNDIzLDg5NCw0MjN6Ii8+JiN4YTsJCTxwYXRoIGQ9Ik0wLDMxNWMwLDI2LjUsMjEuNSw0OCw0OCw0OGg3Ny41di05Nkg0OEMyMS41LDI2NywwLDI4OC41LDAsMzE1eiIvPiYjeGE7CQk8cGF0aCBkPSJNODk0LDI2N2gtNzcuNXY5NS45SDg5NGMyNi41LDAsNDgtMjEuNSw0OC00OFM5MjAuNSwyNjcsODk0LDI2N3oiLz4mI3hhOwkJPHBhdGggZD0iTTE3MS42LDcyMC40YzAsMjcuNiwyMi40LDUwLDUwLDUwaDQ5OC44YzI3LjYsMCw1MC0yMi40LDUwLTUwVjIyMS42YzAtMjcuNi0yMi40LTUwLTUwLTUwSDIyMS42Yy0yNy42LDAtNTAsMjIuNC01MCw1MCYjMTA7JiM5OyYjOTsmIzk7VjcyMC40eiIvPiYjeGE7CTwvZz4mI3hhOzwvZz4mI3hhOzwvc3ZnPg==;" parent="1" vertex="1">
                    <mxGeometry x="164" y="550" width="70" height="70" as="geometry"/>
                </mxCell>
                <mxCell id="sFt86SgeWVr_y6U5tek5-73" value="" style="shape=image;verticalLabelPosition=bottom;labelBackgroundColor=default;verticalAlign=top;aspect=fixed;imageAspect=0;image=data:image/svg+xml,PHN2ZyB4bWxuczp4bGluaz0iaHR0cDovL3d3dy53My5vcmcvMTk5OS94bGluayIgeG1sbnM9Imh0dHA6Ly93d3cudzMub3JnLzIwMDAvc3ZnIiBzdHlsZT0ic2hhcGUtcmVuZGVyaW5nOmdlb21ldHJpY1ByZWNpc2lvbjsgdGV4dC1yZW5kZXJpbmc6Z2VvbWV0cmljUHJlY2lzaW9uOyBpbWFnZS1yZW5kZXJpbmc6b3B0aW1pemVRdWFsaXR5OyBmaWxsLXJ1bGU6ZXZlbm9kZDsgY2xpcC1ydWxlOmV2ZW5vZGQiIGhlaWdodD0iMjI1cHgiIHdpZHRoPSIyMjVweCIgdmVyc2lvbj0iMS4xIiB2aWV3Qm94PSIwIDAgMjI1IDIyNSI+JiN4YTsmI3hhOzxnPjxwYXRoIGQ9Ik0gOTAuNSw0NS41IEMgOTYuNjU2NCw0NS40ODcxIDk5LjQ4OTgsNDguNDg3MSA5OSw1NC41QyA5Mi44NDA4LDYwLjkyMTkgOTMuMzQwOCw2Ni45MjE5IDEwMC41LDcyLjVDIDEwMS41OTgsNzAuMzY4MyAxMDIuNTk4LDY4LjIwMTYgMTAzLjUsNjZDIDEwNS40NzMsNjUuNTA0NSAxMDcuNDczLDY1LjMzNzkgMTA5LjUsNjUuNUMgMTEwLjE0Miw2MS4xMzgyIDEwOC42NDIsNTcuODA0OCAxMDUsNTUuNUMgMTAzLjYwNSw1MC4zOTQxIDEwNS40MzksNDcuMDYwOCAxMTAuNSw0NS41QyAxMTcuMTAyLDQ2LjM3ODMgMTE5LjI2OCw1MC4wNDQ5IDExNyw1Ni41QyAxMTQuMDkzLDU4LjczMzQgMTEyLjkyNiw2MS43MzM0IDExMy41LDY1LjVDIDExNS4xOTksNjUuMzM5OCAxMTYuODY2LDY1LjUwNjUgMTE4LjUsNjZDIDExOS42Nyw2OC4xODQ2IDEyMC44MzYsNzAuMzUxMiAxMjIsNzIuNUMgMTI1LjA4OSw2OS40NzE2IDEyNy4yNTYsNjUuOTcxNiAxMjguNSw2MkMgMTI4LjE2Nyw2MC44MzMzIDEyNy44MzMsNTkuNjY2NyAxMjcuNSw1OC41QyAxMjMuODMxLDU2LjU3MjMgMTIyLjY2NCw1My41NzIzIDEyNCw0OS41QyAxMjguMDA0LDQ0LjMzNSAxMzIuMDA0LDQ0LjMzNSAxMzYsNDkuNUMgMTM3LjA3Miw1My4xMDkyIDEzNi4yMzksNTYuMTA5MiAxMzMuNSw1OC41QyAxMzMuMjM1LDY0LjU5OSAxMzAuOTAyLDY5Ljc2NTYgMTI2LjUsNzRDIDEyOC4wMTcsNzUuNTA4NCAxMjkuODUxLDc2LjM0MTcgMTMyLDc2LjVDIDEzNC43MzQsNzUuMjA0MiAxMzcuNTY3LDc0LjcwNDIgMTQwLjUsNzVDIDE0My4zMzMsNzcuODMzMyAxNDYuMTY3LDgwLjY2NjcgMTQ5LDgzLjVDIDE0OS4wODUsODYuMzYxIDE0OC4yNTEsODkuMDI3NiAxNDYuNSw5MS41QyAxNDcuNTAyLDkzLjUxMDEgMTQ4LjUwMiw5NS41MTAxIDE0OS41LDk3LjVDIDE1MS42NzksOTYuMjQzMyAxNTMuNjc5LDk0Ljc0MzMgMTU1LjUsOTNDIDE1OC43Nyw5Mi4wMDUyIDE2Mi4xMDMsOTEuMTcxOSAxNjUuNSw5MC41QyAxNzAuMDEyLDg1LjI2ODMgMTc0LjE3OSw4NS42MDE2IDE3OCw5MS41QyAxNzguMzg5LDk4LjEwNTcgMTc1LjIyMiwxMDAuOTM5IDE2OC41LDEwMEMgMTYzLjE3NCw5NC4xMDM5IDE1Ny44NDEsOTQuMjcwNiAxNTIuNSwxMDAuNUMgMTUxLjE2NywxMDEuMTY3IDE1MS4xNjcsMTAxLjgzMyAxNTIuNSwxMDIuNUMgMTU3LjIxOSwxMDMuMjEgMTU5LjIxOSwxMDUuODc3IDE1OC41LDExMC41QyAxNjAuOTI0LDExMC44MDggMTYzLjI1NywxMTAuNDc0IDE2NS41LDEwOS41QyAxNjguMDYyLDEwNS41MjYgMTcxLjM5NiwxMDQuNjkzIDE3NS41LDEwN0MgMTgwLjEzOCwxMTIuOTE4IDE3OC44MDUsMTE3LjA4NCAxNzEuNSwxMTkuNUMgMTY4LjgxMywxMTkuMTU5IDE2Ni44MTMsMTE3LjgyNiAxNjUuNSwxMTUuNUMgMTYzLjI1NywxMTQuNTI2IDE2MC45MjQsMTE0LjE5MiAxNTguNSwxMTQuNUMgMTU4LjUsMTE2LjUgMTU4LjUsMTE4LjUgMTU4LjUsMTIwLjVDIDE1NS45ODQsMTIwLjc1NSAxNTMuNjUsMTIxLjU4OSAxNTEuNSwxMjNDIDE1NC41MjgsMTI2LjA4OSAxNTguMDI4LDEyOC4yNTYgMTYyLDEyOS41QyAxNjQuNzYxLDEyOC41NDQgMTY3LjI2MSwxMjcuMDQ0IDE2OS41LDEyNUMgMTc3LjA1NCwxMjQuODg4IDE3OS41NTQsMTI4LjM4OCAxNzcsMTM1LjVDIDE3Mi43NzcsMTM5LjY1MyAxNjguOTQzLDEzOS4zMTkgMTY1LjUsMTM0LjVDIDE2Mi44OTMsMTMzLjY4MiAxNjAuMjI2LDEzMy4xODIgMTU3LjUsMTMzQyAxNTQuOTcxLDEzMC45NzEgMTUyLjMwNCwxMjkuMTM4IDE0OS41LDEyNy41QyAxNDguNTk0LDEyOS4zODYgMTQ3LjU5NCwxMzEuMjIgMTQ2LjUsMTMzQyAxNDguMTAzLDEzNS42OCAxNDguOTM3LDEzOC41MTMgMTQ5LDE0MS41QyAxNDYuMTY3LDE0NC4zMzMgMTQzLjMzMywxNDcuMTY3IDE0MC41LDE1MEMgMTM3LjU2NywxNTAuMjk2IDEzNC43MzQsMTQ5Ljc5NiAxMzIsMTQ4LjVDIDEyOS44NTEsMTQ4LjY1OCAxMjguMDE3LDE0OS40OTIgMTI2LjUsMTUxQyAxMjguMzMzLDE1My41IDEzMC4xNjcsMTU2IDEzMiwxNTguNUMgMTMxLjY1MiwxNjIuODg3IDEzMi45ODYsMTY2LjU1MyAxMzYsMTY5LjVDIDEzNy43MTksMTc2Ljc4IDEzNC44ODUsMTc5Ljk0NyAxMjcuNSwxNzlDIDEyMy44NzYsMTc2LjgzOSAxMjIuNzA5LDE3My42NzIgMTI0LDE2OS41QyAxMjcuODA1LDE2Ny4xOTIgMTI5LjEzOCwxNjMuODU5IDEyOCwxNTkuNUMgMTI1Ljc2MywxNTcuMzUzIDEyMy43NjMsMTU1LjAyIDEyMiwxNTIuNUMgMTIwLjQ3NywxNTQuNTY5IDExOS42NDMsMTU2LjkwMyAxMTkuNSwxNTkuNUMgMTE3LjUsMTU5LjUgMTE1LjUsMTU5LjUgMTEzLjUsMTU5LjVDIDExMi43NzIsMTYzLjIxOSAxMTMuNzcyLDE2Ni4yMTkgMTE2LjUsMTY4LjVDIDExOC42ODUsMTc4LjE0OSAxMTUuMTg1LDE4MS4xNDkgMTA2LDE3Ny41QyAxMDMuNDE4LDE3Mi45NjkgMTA0LjI1MSwxNjkuMzAyIDEwOC41LDE2Ni41QyAxMDkuNDc0LDE2NC4yNTcgMTA5LjgwOCwxNjEuOTI0IDEwOS41LDE1OS41QyAxMDcuMzk2LDE1OS43OTkgMTA1LjM5NiwxNTkuNDY2IDEwMy41LDE1OC41QyAxMDIuNDk4LDE1Ni40OSAxMDEuNDk4LDE1NC40OSAxMDAuNSwxNTIuNUMgOTcuMzEyOSwxNTUuMzggOTUuMzEyOSwxNTguODggOTQuNSwxNjNDIDk1LjQ1NiwxNjUuNzYxIDk2Ljk1NiwxNjguMjYxIDk5LDE3MC41QyA5OC44MDA3LDE3OC4zNTcgOTQuOTY3NCwxODAuODU3IDg3LjUsMTc4QyA4NC40OTY2LDE3My41MTggODUuMTYzMiwxNjkuNjg1IDg5LjUsMTY2LjVDIDkwLjMyMTQsMTYzLjU1MyA5MC44MjE0LDE2MC41NTMgOTEsMTU3LjVDIDkyLjcxNDYsMTU1LjI0MSA5NC41NDc5LDE1My4wNzQgOTYuNSwxNTFDIDk0LjYwOTYsMTQ5Ljg4OCA5Mi42MDk2LDE0OS4wNTQgOTAuNSwxNDguNUMgODcuNTc2NywxNDkuNzYgODQuNTc2NywxNTAuMjYgODEuNSwxNTBDIDc4LjMxNzIsMTQ2Ljk4NSA3NS4zMTcyLDE0My44MTggNzIuNSwxNDAuNUMgNzUuODk5OCwxMzYuMTk5IDc2LjA2NjUsMTMxLjg2NSA3MywxMjcuNUMgNjguOTAwNiwxMzIuMTMyIDYzLjczMzksMTM0LjQ2NSA1Ny41LDEzNC41QyA1Mi45MTgyLDEzOS45ODQgNDguNzUxNiwxMzkuNjUxIDQ1LDEzMy41QyA0NC41LDEyNy4zMzMgNDcuMzMzMywxMjQuNSA1My41LDEyNUMgNTUuNzM5LDEyNy4wNDQgNTguMjM5LDEyOC41NDQgNjEsMTI5LjVDIDY1LjEyLDEyOC42ODcgNjguNjIsMTI2LjY4NyA3MS41LDEyMy41QyA2OC45Mjk2LDEyMi4yOTggNjYuNDI5NiwxMjAuOTY1IDY0LDExOS41QyA2My41MDY1LDExNy44NjYgNjMuMzM5OCwxMTYuMTk5IDYzLjUsMTE0LjVDIDYxLjM5NiwxMTQuMjAxIDU5LjM5NiwxMTQuNTM0IDU3LjUsMTE1LjVDIDU0LjA1NjUsMTIwLjMxOSA1MC4yMjMyLDEyMC42NTMgNDYsMTE2LjVDIDQzLjA4ODksMTEwLjU1NyA0NC45MjIyLDEwNi44OSA1MS41LDEwNS41QyA1NC4xODY4LDEwNS44NDEgNTYuMTg2OCwxMDcuMTc0IDU3LjUsMTA5LjVDIDU5LjM5NiwxMTAuNDY2IDYxLjM5NiwxMTAuNzk5IDYzLjUsMTEwLjVDIDYzLjMzOTgsMTA4LjgwMSA2My41MDY1LDEwNy4xMzQgNjQsMTA1LjVDIDY2LjU2MjgsMTA0LjI1OSA2OS4wNjI4LDEwMi45MjYgNzEuNSwxMDEuNUMgNjguNjIsOTguMzEyOSA2NS4xMiw5Ni4zMTI5IDYxLDk1LjVDIDU4LjIzOSw5Ni40NTYgNTUuNzM5LDk3Ljk1NiA1My41LDEwMEMgNDcuMzc4OSwxMDAuNTQ2IDQ0LjU0NTYsOTcuNzEyNCA0NSw5MS41QyA0OC43NTE2LDg1LjM0OTQgNTIuOTE4Miw4NS4wMTYxIDU3LjUsOTAuNUMgNjMuNzMzOSw5MC41MzQ3IDY4LjkwMDYsOTIuODY4IDczLDk3LjVDIDczLjk3MDQsOTUuNzI2MiA3NC44MDM3LDkzLjg5MjggNzUuNSw5MkMgNzQuNDExLDg5LjA4MzkgNzMuNTc3Nyw4Ni4yNTA2IDczLDgzLjVDIDc1LjgzMzMsODAuNjY2NyA3OC42NjY3LDc3LjgzMzMgODEuNSw3NUMgODQuNTc2Nyw3NC43Mzk5IDg3LjU3NjcsNzUuMjM5OSA5MC41LDc2LjVDIDkyLjY2MzMsNzYuMjU0NyA5NC4zMyw3NS4yNTQ3IDk1LjUsNzMuNUMgOTEuMzY0NSw2OS40MjQxIDg5LjM2NDUsNjQuNDI0MSA4OS41LDU4LjVDIDgzLjkzNTYsNTMuNjY4OSA4NC4yNjksNDkuMzM1NiA5MC41LDQ1LjUgWiIgZmlsbD0iIzBjMGMwYyIgc3R5bGU9Im9wYWNpdHk6MSIvPjwvZz4mI3hhOzxnPjxwYXRoIGQ9Ik0gOTEuNSw0OS41IEMgOTYuMTk3Miw1MC44NzQzIDk2LjUzMDUsNTIuODc0MyA5Mi41LDU1LjVDIDg5LjAyNSw1My45MTU4IDg4LjY5MTcsNTEuOTE1OCA5MS41LDQ5LjUgWiIgZmlsbD0iI2UzZTNlMyIgc3R5bGU9Im9wYWNpdHk6MSIvPjwvZz4mI3hhOzxnPjxwYXRoIGQ9Ik0gMTA5LjUsNDkuNSBDIDExMy4zNSw0OS43MDA3IDExNC4zNSw1MS41MzQxIDExMi41LDU1QyAxMDguNTM3LDU1LjExNzcgMTA3LjUzNyw1My4yODQzIDEwOS41LDQ5LjUgWiIgZmlsbD0iI2RmZGZkZiIgc3R5bGU9Im9wYWNpdHk6MSIvPjwvZz4mI3hhOzxnPjxwYXRoIGQ9Ik0gMTI4LjUsNDkuNSBDIDEzMi4zNSw0OS43MDA3IDEzMy4zNSw1MS41MzQxIDEzMS41LDU1QyAxMjcuNTM3LDU1LjExNzcgMTI2LjUzNyw1My4yODQzIDEyOC41LDQ5LjUgWiIgZmlsbD0iI2RmZGZkZiIgc3R5bGU9Im9wYWNpdHk6MSIvPjwvZz4mI3hhOzxnPjxwYXRoIGQ9Ik0gMTQ0LjUsOTcuNSBDIDE0MC41LDk4LjE2NjcgMTM2LjUsOTguODMzMyAxMzIuNSw5OS41QyAxMzEuNTk2LDEwMC4yMDkgMTMxLjI2MywxMDEuMjA5IDEzMS41LDEwMi41QyAxMzYuNTExLDEwMi4zMzQgMTQxLjUxMSwxMDIuNTAxIDE0Ni41LDEwM0MgMTQ4LjE0OSwxMDUuNDk1IDE1MC40ODMsMTA2Ljk5NSAxNTMuNSwxMDcuNUMgMTU0LjM4NiwxMDguMzI1IDE1NC43MTksMTA5LjMyNSAxNTQuNSwxMTAuNUMgMTQ2LjgzMywxMTAuNSAxMzkuMTY3LDExMC41IDEzMS41LDExMC41QyAxMzEuNSwxMTEuODMzIDEzMS41LDExMy4xNjcgMTMxLjUsMTE0LjVDIDEzOS4xNjcsMTE0LjUgMTQ2LjgzMywxMTQuNSAxNTQuNSwxMTQuNUMgMTU0LjcxOSwxMTUuNjc1IDE1NC4zODYsMTE2LjY3NSAxNTMuNSwxMTcuNUMgMTQ2Ljk1NywxMjAuNzQ1IDEzOS45NTcsMTIyLjI0NSAxMzIuNSwxMjJDIDEzMS4yMDksMTIzLjI5MiAxMzEuMjA5LDEyNC40NTggMTMyLjUsMTI1LjVDIDEzNi41LDEyNi4xNjcgMTQwLjUsMTI2LjgzMyAxNDQuNSwxMjcuNUMgMTQzLjk4NiwxMjkuMzY2IDE0My4zMiwxMzEuMiAxNDIuNSwxMzNDIDE0My42NTQsMTM1LjQzNyAxNDQuMTU0LDEzNy45MzcgMTQ0LDE0MC41QyAxNDIsMTQyLjUgMTQwLDE0NC41IDEzOCwxNDYuNUMgMTM1Ljk3OCwxNDUuMjE0IDEzMy44MTEsMTQ0LjIxNCAxMzEuNSwxNDMuNUMgMTI5LjUsMTQ0LjUgMTI3LjUsMTQ1LjUgMTI1LjUsMTQ2LjVDIDEyNC41MDcsMTQxLjg4IDEyNC4xNzMsMTM3LjIxNCAxMjQuNSwxMzIuNUMgMTIzLjE3OCwxMzIuMzMgMTIyLjAxMSwxMzIuNjYzIDEyMSwxMzMuNUMgMTIxLjI0NSwxNDAuOTU3IDExOS43NDUsMTQ3Ljk1NyAxMTYuNSwxNTQuNUMgMTE1LjY3NSwxNTUuMzg2IDExNC42NzUsMTU1LjcxOSAxMTMuNSwxNTUuNUMgMTEzLjY2NiwxNDguMTU5IDExMy41LDE0MC44MjYgMTEzLDEzMy41QyAxMTEuOTg5LDEzMi42NjMgMTEwLjgyMiwxMzIuMzMgMTA5LjUsMTMyLjVDIDEwOS41LDE0MC4xNjcgMTA5LjUsMTQ3LjgzMyAxMDkuNSwxNTUuNUMgMTA4LjQ0OCwxNTUuNjQ5IDEwNy40NDgsMTU1LjQ4MyAxMDYuNSwxNTVDIDEwNS43OTIsMTUyLjQxMSAxMDQuNDU5LDE1MC4yNDUgMTAyLjUsMTQ4LjVDIDEwMS41MDUsMTQzLjIwOCAxMDEuMTcyLDEzNy44NzUgMTAxLjUsMTMyLjVDIDEwMC4xNjcsMTMyLjUgOTguODMzMywxMzIuNSA5Ny41LDEzMi41QyA5Ny44MjY2LDEzNy4yMTQgOTcuNDkzMywxNDEuODggOTYuNSwxNDYuNUMgOTQuNTcwOCwxNDUuNjIgOTIuNzM3NCwxNDQuNjIgOTEsMTQzLjVDIDg4LjY0OTYsMTQ0LjUwNCA4Ni4zMTYzLDE0NS41MDQgODQsMTQ2LjVDIDgyLDE0NC41IDgwLDE0Mi41IDc4LDE0MC41QyA3OC4wMTI4LDEzNy43OTUgNzguODQ2MSwxMzUuMjk1IDgwLjUsMTMzQyA3OS4zODAyLDEzMS4yNjMgNzguMzgwMiwxMjkuNDI5IDc3LjUsMTI3LjVDIDgxLjc5NTYsMTI2LjY3MiA4Ni4xMjg5LDEyNi4xNzIgOTAuNSwxMjZDIDkxLjMzNjYsMTI0Ljk4OSA5MS42NywxMjMuODIyIDkxLjUsMTIyLjVDIDg2LjEyNTQsMTIyLjgyOCA4MC43OTIxLDEyMi40OTUgNzUuNSwxMjEuNUMgNzMuNjUwNSwxMTkuNDI4IDcxLjMxNzEsMTE4LjA5NSA2OC41LDExNy41QyA2Ny42MTQzLDExNi42NzUgNjcuMjgxLDExNS42NzUgNjcuNSwxMTQuNUMgNzUuNTA2OSwxMTQuNjY2IDgzLjUwNjksMTE0LjUgOTEuNSwxMTRDIDkyLjgzMzMsMTEzIDkyLjgzMzMsMTEyIDkxLjUsMTExQyA4My41MDY5LDExMC41IDc1LjUwNjksMTEwLjMzNCA2Ny41LDExMC41QyA2Ny4yODEsMTA5LjMyNSA2Ny42MTQzLDEwOC4zMjUgNjguNSwxMDcuNUMgNzUuMzIwNCwxMDMuOTk5IDgyLjY1MzcsMTAyLjQ5OSA5MC41LDEwM0MgOTEuMzgwMiwxMDEuNjQ0IDkxLjcxMzUsMTAwLjE0NCA5MS41LDk4LjVDIDg2Ljc4NjMsOTguODI2NiA4Mi4xMTk2LDk4LjQ5MzMgNzcuNSw5Ny41QyA3OC4yNDg1LDk1LjY2NzUgNzkuMjQ4NSw5NC4wMDA5IDgwLjUsOTIuNUMgNzguOTI5OSw4OS45NjI2IDc4LjA5NjYsODcuMjk2IDc4LDg0LjVDIDgwLDgyLjUgODIsODAuNSA4NCw3OC41QyA4Ni4zMTYzLDc5LjQ5NTggODguNjQ5Niw4MC40OTU4IDkxLDgxLjVDIDkyLjczNzQsODAuMzgwMiA5NC41NzA4LDc5LjM4MDIgOTYuNSw3OC41QyA5Ny4zMjgzLDgzLjEzMTUgOTcuODI4Myw4Ny43OTgyIDk4LDkyLjVDIDk5LDkzLjgzMzMgMTAwLDkzLjgzMzMgMTAxLDkyLjVDIDEwMC41NjUsODQuNTE1NSAxMDIuMjMyLDc3LjE4MjIgMTA2LDcwLjVDIDEwNy4wMTEsNjkuNjYzNCAxMDguMTc4LDY5LjMzIDEwOS41LDY5LjVDIDEwOS4zMzQsNzcuMTczOSAxMDkuNSw4NC44NDA2IDExMCw5Mi41QyAxMTEsOTMuODMzMyAxMTIsOTMuODMzMyAxMTMsOTIuNUMgMTEzLjUsODQuODQwNiAxMTMuNjY2LDc3LjE3MzkgMTEzLjUsNjkuNUMgMTE0LjY3NSw2OS4yODEgMTE1LjY3NSw2OS42MTQzIDExNi41LDcwLjVDIDExOS42NjUsNzcuNjMwNyAxMjEuMzMyLDg1LjEzMDcgMTIxLjUsOTNDIDEyMi40NDksOTMuNjE3MiAxMjMuMjgyLDkzLjQ1MDYgMTI0LDkyLjVDIDEyNC4xNzIsODcuNzk4MiAxMjQuNjcyLDgzLjEzMTUgMTI1LjUsNzguNUMgMTI3LjUsNzkuNSAxMjkuNSw4MC41IDEzMS41LDgxLjVDIDEzMy44MTEsODAuNzg2NSAxMzUuOTc4LDc5Ljc4NjUgMTM4LDc4LjVDIDE0MCw4MC41IDE0Miw4Mi41IDE0NCw4NC41QyAxNDQuMTU0LDg3LjA2MzEgMTQzLjY1NCw4OS41NjMxIDE0Mi41LDkyQyAxNDMuMzIsOTMuODAwMyAxNDMuOTg2LDk1LjYzMzYgMTQ0LjUsOTcuNSBaIiBmaWxsPSIjZjZmNmY2IiBzdHlsZT0ib3BhY2l0eToxIi8+PC9nPiYjeGE7PGc+PHBhdGggZD0iTSA1MC41LDkwLjUgQyA1NS41MDUzLDkyLjE2MzEgNTUuNjcxOSw5NC4xNjMxIDUxLDk2LjVDIDQ3Ljg5Nyw5NC44ODggNDcuNzMwNCw5Mi44ODggNTAuNSw5MC41IFoiIGZpbGw9IiNkZGRkZGQiIHN0eWxlPSJvcGFjaXR5OjEiLz48L2c+JiN4YTs8Zz48cGF0aCBkPSJNIDE3MC41LDkwLjUgQyAxNzMuOTY2LDkxLjEwOSAxNzQuOTY2LDkyLjk0MjMgMTczLjUsOTZDIDE2OC43MjIsOTYuMDczNCAxNjcuNzIyLDk0LjI0MDEgMTcwLjUsOTAuNSBaIiBmaWxsPSIjZGVkZWRlIiBzdHlsZT0ib3BhY2l0eToxIi8+PC9nPiYjeGE7PGc+PHBhdGggZD0iTSA5Ny41LDk3LjUgQyAxMDYuNzUxLDk3LjE4MjIgMTE1LjkxNyw5Ny41MTU1IDEyNSw5OC41QyAxMjUuODE4LDEwOC4wNzggMTI1LjY1MSwxMTcuNTc4IDEyNC41LDEyN0MgMTE1LjI1NSwxMjcuODE3IDEwNi4wODksMTI3LjY1IDk3LDEyNi41QyA5Ni4xOTQzLDExNi43NTYgOTYuMzYxLDEwNy4wODkgOTcuNSw5Ny41IFoiIGZpbGw9IiMxMjEyMTIiIHN0eWxlPSJvcGFjaXR5OjEiLz48L2c+JiN4YTs8Zz48cGF0aCBkPSJNIDE0NC41LDk3LjUgQyAxNDUuMDQzLDk3LjU2IDE0NS4zNzYsOTcuODkzMyAxNDUuNSw5OC41QyAxNDEuMjE3LDk5LjQ5MjIgMTM2Ljg4NCw5OS44MjU2IDEzMi41LDk5LjVDIDEzNi41LDk4LjgzMzMgMTQwLjUsOTguMTY2NyAxNDQuNSw5Ny41IFoiIGZpbGw9IiM1OTU5NTkiIHN0eWxlPSJvcGFjaXR5OjEiLz48L2c+JiN4YTs8Zz48cGF0aCBkPSJNIDEwMC41LDEwMS41IEMgMTA3LjUsMTAxLjUgMTE0LjUsMTAxLjUgMTIxLjUsMTAxLjVDIDEyMS41LDEwOC44MzMgMTIxLjUsMTE2LjE2NyAxMjEuNSwxMjMuNUMgMTE0LjUsMTIzLjUgMTA3LjUsMTIzLjUgMTAwLjUsMTIzLjVDIDEwMC41LDExNi4xNjcgMTAwLjUsMTA4LjgzMyAxMDAuNSwxMDEuNSBaIiBmaWxsPSIjZjFmMWYxIiBzdHlsZT0ib3BhY2l0eToxIi8+PC9nPiYjeGE7PGc+PHBhdGggZD0iTSA1MC41LDEwOS41IEMgNTUuMTk3MiwxMTAuODc0IDU1LjUzMDUsMTEyLjg3NCA1MS41LDExNS41QyA0OC4wMjUsMTEzLjkxNiA0Ny42OTE3LDExMS45MTYgNTAuNSwxMDkuNSBaIiBmaWxsPSIjZTZlNmU2IiBzdHlsZT0ib3BhY2l0eToxIi8+PC9nPiYjeGE7PGc+PHBhdGggZD0iTSAxNzAuNSwxMDkuNSBDIDE3NS4xOTcsMTEwLjg3NCAxNzUuNTMxLDExMi44NzQgMTcxLjUsMTE1LjVDIDE2OC4wMjUsMTEzLjkxNiAxNjcuNjkyLDExMS45MTYgMTcwLjUsMTA5LjUgWiIgZmlsbD0iI2RkZGRkZCIgc3R5bGU9Im9wYWNpdHk6MSIvPjwvZz4mI3hhOzxnPjxwYXRoIGQ9Ik0gMTMyLjUsMTI1LjUgQyAxMzYuODg0LDEyNS4xNzQgMTQxLjIxNywxMjUuNTA4IDE0NS41LDEyNi41QyAxNDUuMzc2LDEyNy4xMDcgMTQ1LjA0MywxMjcuNDQgMTQ0LjUsMTI3LjVDIDE0MC41LDEyNi44MzMgMTM2LjUsMTI2LjE2NyAxMzIuNSwxMjUuNSBaIiBmaWxsPSIjNmY2ZjZmIiBzdHlsZT0ib3BhY2l0eToxIi8+PC9nPiYjeGE7PGc+PHBhdGggZD0iTSA0OS41LDEyOC41IEMgNTQuODkwMiwxMjkuMjUgNTUuNTU2OCwxMzEuMjUgNTEuNSwxMzQuNUMgNDguNTEzMSwxMzMuMjA1IDQ3Ljg0NjQsMTMxLjIwNSA0OS41LDEyOC41IFoiIGZpbGw9IiNlMGUwZTAiIHN0eWxlPSJvcGFjaXR5OjEiLz48L2c+JiN4YTs8Zz48cGF0aCBkPSJNIDE3MC41LDEyOC41IEMgMTc1LjM5NCwxMjkuNTQgMTc1LjcyNywxMzEuNTQgMTcxLjUsMTM0LjVDIDE2OC4wMjUsMTMyLjkxNiAxNjcuNjkyLDEzMC45MTYgMTcwLjUsMTI4LjUgWiIgZmlsbD0iI2RkZGRkZCIgc3R5bGU9Im9wYWNpdHk6MSIvPjwvZz4mI3hhOzxnPjxwYXRoIGQ9Ik0gOTAuNSwxNzAuNSBDIDkxLjg3MzQsMTcwLjM0MyA5My4yMDY4LDE3MC41MSA5NC41LDE3MUMgOTUuNDUwNiwxNzEuNzE4IDk1LjYxNzIsMTcyLjU1MSA5NSwxNzMuNUMgOTAuNjUxNiwxNzYuNTU4IDg5LjE1MTYsMTc1LjU1OCA5MC41LDE3MC41IFoiIGZpbGw9IiNlNmU2ZTYiIHN0eWxlPSJvcGFjaXR5OjEiLz48L2c+JiN4YTs8Zz48cGF0aCBkPSJNIDEwOS41LDE3MC41IEMgMTEwLjgzMywxNzAuNSAxMTIuMTY3LDE3MC41IDExMy41LDE3MC41QyAxMTMuOTksMTcyLjk0OCAxMTMuMTU3LDE3NC42MTUgMTExLDE3NS41QyAxMDguMzg5LDE3NC41IDEwNy44ODksMTcyLjgzMyAxMDkuNSwxNzAuNSBaIiBmaWxsPSIjZjJmMmYyIiBzdHlsZT0ib3BhY2l0eToxIi8+PC9nPiYjeGE7PGc+PHBhdGggZD0iTSAxMjguNSwxNzAuNSBDIDEyOS44MzMsMTcwLjUgMTMxLjE2NywxNzAuNSAxMzIuNSwxNzAuNUMgMTMyLjk5LDE3Mi45NDggMTMyLjE1NywxNzQuNjE1IDEzMCwxNzUuNUMgMTI3LjM4OSwxNzQuNSAxMjYuODg5LDE3Mi44MzMgMTI4LjUsMTcwLjUgWiIgZmlsbD0iI2YxZjFmMSIgc3R5bGU9Im9wYWNpdHk6MSIvPjwvZz4mI3hhOzwvc3ZnPg==;" parent="1" vertex="1">
                    <mxGeometry x="452" y="529" width="118" height="118" as="geometry"/>
                </mxCell>
                <mxCell id="sFt86SgeWVr_y6U5tek5-74" value="" style="shape=image;verticalLabelPosition=bottom;labelBackgroundColor=default;verticalAlign=top;aspect=fixed;imageAspect=0;image=data:image/svg+xml,PHN2ZyB4bWxuczp4bGluaz0iaHR0cDovL3d3dy53My5vcmcvMTk5OS94bGluayIgeG1sbnM9Imh0dHA6Ly93d3cudzMub3JnLzIwMDAvc3ZnIiBzdHlsZT0ic2hhcGUtcmVuZGVyaW5nOmdlb21ldHJpY1ByZWNpc2lvbjsgdGV4dC1yZW5kZXJpbmc6Z2VvbWV0cmljUHJlY2lzaW9uOyBpbWFnZS1yZW5kZXJpbmc6b3B0aW1pemVRdWFsaXR5OyBmaWxsLXJ1bGU6ZXZlbm9kZDsgY2xpcC1ydWxlOmV2ZW5vZGQiIGhlaWdodD0iNTEycHgiIHdpZHRoPSI1MTJweCIgdmVyc2lvbj0iMS4xIiB2aWV3Qm94PSIwIDAgNTEyIDUxMiI+JiN4YTs8Zz48cGF0aCBkPSJNIDE0OS41LDUzLjUgQyAxNjAuODMzLDUzLjUgMTcyLjE2Nyw1My41IDE4My41LDUzLjVDIDE4My41LDY0LjE2NjcgMTgzLjUsNzQuODMzMyAxODMuNSw4NS41QyAxOTkuNSw4NS41IDIxNS41LDg1LjUgMjMxLjUsODUuNUMgMjMxLjUsNzQuODMzMyAyMzEuNSw2NC4xNjY3IDIzMS41LDUzLjVDIDI0Mi41LDUzLjUgMjUzLjUsNTMuNSAyNjQuNSw1My41QyAyNjQuNSw2NC4xNjY3IDI2NC41LDc0LjgzMzMgMjY0LjUsODUuNUMgMjgwLjUsODUuNSAyOTYuNSw4NS41IDMxMi41LDg1LjVDIDMxMi41LDc0LjgzMzMgMzEyLjUsNjQuMTY2NyAzMTIuNSw1My41QyAzMjMuNSw1My41IDMzNC41LDUzLjUgMzQ1LjUsNTMuNUMgMzQ1LjUsNjQuMTY2NyAzNDUuNSw3NC44MzMzIDM0NS41LDg1LjVDIDM5Ny42NzMsNzYuMDA2OCA0MTkuMzQsOTcuMzQwMSA0MTAuNSwxNDkuNUMgNDIxLjUsMTQ5LjUgNDMyLjUsMTQ5LjUgNDQzLjUsMTQ5LjVDIDQ0My41LDE2MC44MzMgNDQzLjUsMTcyLjE2NyA0NDMuNSwxODMuNUMgNDMyLjUsMTgzLjUgNDIxLjUsMTgzLjUgNDEwLjUsMTgzLjVDIDQxMC41LDE5OS4xNjcgNDEwLjUsMjE0LjgzMyA0MTAuNSwyMzAuNUMgNDIxLjUsMjMwLjUgNDMyLjUsMjMwLjUgNDQzLjUsMjMwLjVDIDQ0My41LDI0MS41IDQ0My41LDI1Mi41IDQ0My41LDI2My41QyA0MzIuNSwyNjMuNSA0MjEuNSwyNjMuNSA0MTAuNSwyNjMuNUMgNDEwLjUsMjc5LjE2NyA0MTAuNSwyOTQuODMzIDQxMC41LDMxMC41QyA0MjEuNSwzMTAuNSA0MzIuNSwzMTAuNSA0NDMuNSwzMTAuNUMgNDQzLjUsMzIxLjgzMyA0NDMuNSwzMzMuMTY3IDQ0My41LDM0NC41QyA0MzIuNSwzNDQuNSA0MjEuNSwzNDQuNSA0MTAuNSwzNDQuNUMgNDEwLjY2NywzNTcuMTcxIDQxMC41LDM2OS44MzggNDEwLDM4Mi41QyA0MDYuNzI3LDM5Ni43NzIgMzk3Ljg5NCw0MDUuMjcyIDM4My41LDQwOEMgMzcwLjgzOCw0MDguNSAzNTguMTcxLDQwOC42NjcgMzQ1LjUsNDA4LjVDIDM0NS41LDQxOS4xNjcgMzQ1LjUsNDI5LjgzMyAzNDUuNSw0NDAuNUMgMzM0LjUsNDQwLjUgMzIzLjUsNDQwLjUgMzEyLjUsNDQwLjVDIDMxMi41LDQyOS44MzMgMzEyLjUsNDE5LjE2NyAzMTIuNSw0MDguNUMgMjk2LjUsNDA4LjUgMjgwLjUsNDA4LjUgMjY0LjUsNDA4LjVDIDI2NC41LDQxOS4xNjcgMjY0LjUsNDI5LjgzMyAyNjQuNSw0NDAuNUMgMjUzLjE2Nyw0NDAuNSAyNDEuODMzLDQ0MC41IDIzMC41LDQ0MC41QyAyMzAuNSw0MjkuODMzIDIzMC41LDQxOS4xNjcgMjMwLjUsNDA4LjVDIDIxNC44MzMsNDA4LjUgMTk5LjE2Nyw0MDguNSAxODMuNSw0MDguNUMgMTgzLjUsNDE5LjE2NyAxODMuNSw0MjkuODMzIDE4My41LDQ0MC41QyAxNzIuMTY3LDQ0MC41IDE2MC44MzMsNDQwLjUgMTQ5LjUsNDQwLjVDIDE0OS41LDQyOS44MzMgMTQ5LjUsNDE5LjE2NyAxNDkuNSw0MDguNUMgOTguMDMzNyw0MTcuMzY3IDc2LjM2NzEsMzk2LjAzNCA4NC41LDM0NC41QyA3My44MzMzLDM0NC41IDYzLjE2NjcsMzQ0LjUgNTIuNSwzNDQuNUMgNTIuNSwzMzMuNSA1Mi41LDMyMi41IDUyLjUsMzExLjVDIDYzLjE2NjcsMzExLjUgNzMuODMzMywzMTEuNSA4NC41LDMxMS41QyA4NC41LDI5NS41IDg0LjUsMjc5LjUgODQuNSwyNjMuNUMgNzMuODMzMywyNjMuNSA2My4xNjY3LDI2My41IDUyLjUsMjYzLjVDIDUyLjUsMjUyLjUgNTIuNSwyNDEuNSA1Mi41LDIzMC41QyA2My4xNjY3LDIzMC41IDczLjgzMzMsMjMwLjUgODQuNSwyMzAuNUMgODQuNSwyMTQuODMzIDg0LjUsMTk5LjE2NyA4NC41LDE4My41QyA3My44MzMzLDE4My41IDYzLjE2NjcsMTgzLjUgNTIuNSwxODMuNUMgNTIuNSwxNzIuMTY3IDUyLjUsMTYwLjgzMyA1Mi41LDE0OS41QyA2My4xNjY3LDE0OS41IDczLjgzMzMsMTQ5LjUgODQuNSwxNDkuNUMgNzYuMzY3MSw5Ny45NjY1IDk4LjAzMzgsNzYuNjMzMiAxNDkuNSw4NS41QyAxNDkuNSw3NC44MzMzIDE0OS41LDY0LjE2NjcgMTQ5LjUsNTMuNSBaIE0gMTE4LjUsMTE4LjUgQyAxMzMuMTY3LDExOC41IDE0Ny44MzMsMTE4LjUgMTYyLjUsMTE4LjVDIDE2Mi41LDEyNi44MzMgMTYyLjUsMTM1LjE2NyAxNjIuNSwxNDMuNUMgMTU1LjE2NywxNDMuNSAxNDcuODMzLDE0My41IDE0MC41LDE0My41QyAxNDAuNSwxNDkuMTY3IDE0MC41LDE1NC44MzMgMTQwLjUsMTYwLjVDIDEzMy4xNjcsMTYwLjUgMTI1LjgzMywxNjAuNSAxMTguNSwxNjAuNUMgMTE4LjUsMTQ2LjUgMTE4LjUsMTMyLjUgMTE4LjUsMTE4LjUgWiBNIDMzNC41LDExOC41IEMgMzQ4LjgzMywxMTguNSAzNjMuMTY3LDExOC41IDM3Ny41LDExOC41QyAzNzcuNSwxMzIuNSAzNzcuNSwxNDYuNSAzNzcuNSwxNjAuNUMgMzY4LjgzMywxNjAuNSAzNjAuMTY3LDE2MC41IDM1MS41LDE2MC41QyAzNTEuNSwxNTQuODMzIDM1MS41LDE0OS4xNjcgMzUxLjUsMTQzLjVDIDM0NS44MzMsMTQzLjUgMzQwLjE2NywxNDMuNSAzMzQuNSwxNDMuNUMgMzM0LjUsMTM1LjE2NyAzMzQuNSwxMjYuODMzIDMzNC41LDExOC41IFogTSAyNjAuNSwyMjcuNSBDIDI2Ny4xMzksMjI3LjMxNyAyNzIuMTM5LDIyOS45ODMgMjc1LjUsMjM1LjVDIDI3NC44MzMsMjM1LjgzMyAyNzQuMTY3LDIzNi4xNjcgMjczLjUsMjM2LjVDIDI2OC4zODIsMjMxLjM0NyAyNjIuMzgyLDIzMC4xOCAyNTUuNSwyMzNDIDI0OS41NzgsMjM5LjcyNyAyNDkuMDc4LDI0Ni44OTQgMjU0LDI1NC41QyAyNjAuMzAxLDI1OC43MSAyNjYuMzAxLDI1OC4zNzcgMjcyLDI1My41QyAyNzIuNDk3LDI1MS4xOSAyNzIuNjYzLDI0OC44NTcgMjcyLjUsMjQ2LjVDIDI2OC44MzMsMjQ2LjUgMjY1LjE2NywyNDYuNSAyNjEuNSwyNDYuNUMgMjYxLjUsMjQ1LjUgMjYxLjUsMjQ0LjUgMjYxLjUsMjQzLjVDIDI2Ni4xNjcsMjQzLjUgMjcwLjgzMywyNDMuNSAyNzUuNSwyNDMuNUMgMjc3LjQ2OCwyNTcuMzU5IDI3MS40NjgsMjYyLjg1OSAyNTcuNSwyNjBDIDI0OS43OSwyNTcuNzYgMjQ2LjEyNCwyNTIuNTkzIDI0Ni41LDI0NC41QyAyNDYuODM3LDIzNS4xNzEgMjUxLjUwNCwyMjkuNTA0IDI2MC41LDIyNy41IFogTSAxODcuNSwyMjguNSBDIDE5NC44MzMsMjI4LjUgMjAyLjE2NywyMjguNSAyMDkuNSwyMjguNUMgMjA5LjUsMjI5LjUgMjA5LjUsMjMwLjUgMjA5LjUsMjMxLjVDIDIwMy41LDIzMS41IDE5Ny41LDIzMS41IDE5MS41LDIzMS41QyAxOTEuNSwyMzUuMTY3IDE5MS41LDIzOC44MzMgMTkxLjUsMjQyLjVDIDE5Ni44MzMsMjQyLjUgMjAyLjE2NywyNDIuNSAyMDcuNSwyNDIuNUMgMjA3LjUsMjQzLjUgMjA3LjUsMjQ0LjUgMjA3LjUsMjQ1LjVDIDIwMi4xNjcsMjQ1LjUgMTk2LjgzMywyNDUuNSAxOTEuNSwyNDUuNUMgMTkxLjUsMjUwLjUgMTkxLjUsMjU1LjUgMTkxLjUsMjYwLjVDIDE5MC4xNjcsMjYwLjUgMTg4LjgzMywyNjAuNSAxODcuNSwyNjAuNUMgMTg3LjUsMjQ5LjgzMyAxODcuNSwyMzkuMTY3IDE4Ny41LDIyOC41IFogTSAyMTYuNSwyMjguNSBDIDIyMy4yNTcsMjI4LjEyMyAyMjkuOTI0LDIyOC42MjMgMjM2LjUsMjMwQyAyNDMuMzg1LDIzNi41NjEgMjQyLjcxOCwyNDIuMjI4IDIzNC41LDI0N0MgMjI5Ljg0NSwyNDcuNDk5IDIyNS4xNzksMjQ3LjY2NiAyMjAuNSwyNDcuNUMgMjIwLjUsMjUxLjgzMyAyMjAuNSwyNTYuMTY3IDIyMC41LDI2MC41QyAyMTkuMTY3LDI2MC41IDIxNy44MzMsMjYwLjUgMjE2LjUsMjYwLjVDIDIxNi41LDI0OS44MzMgMjE2LjUsMjM5LjE2NyAyMTYuNSwyMjguNSBaIE0gMjkzLjUsMjI4LjUgQyAyOTYuNTQ3LDIyNy44NTUgMjk4LjcxMywyMjguODU1IDMwMCwyMzEuNUMgMzAzLjU1NywyNDAuOTQ3IDMwNy4zOSwyNTAuMjgxIDMxMS41LDI1OS41QyAzMDkuOTk0LDI2MC43NDcgMzA4LjQ5NCwyNjAuNzQ3IDMwNywyNTkuNUMgMzA1LjY1OSwyNTYuOTc4IDMwNC44MjYsMjU0LjMxMSAzMDQuNSwyNTEuNUMgMjk5LjE1NiwyNTEuMzM0IDI5My44MjMsMjUxLjUwMSAyODguNSwyNTJDIDI4Ni44MDQsMjU0LjU4NyAyODUuODA0LDI1Ny40MjEgMjg1LjUsMjYwLjVDIDI4My44MDEsMjYwLjY2IDI4Mi4xMzQsMjYwLjQ5NCAyODAuNSwyNjBDIDI4NC45NzgsMjQ5LjU0NiAyODkuMzExLDIzOS4wNDYgMjkzLjUsMjI4LjUgWiBNIDExOC41LDMzMy41IEMgMTI1LjgzMywzMzMuNSAxMzMuMTY3LDMzMy41IDE0MC41LDMzMy41QyAxNDAuNSwzNDAuMTY3IDE0MC41LDM0Ni44MzMgMTQwLjUsMzUzLjVDIDE0Ny44MzMsMzUzLjUgMTU1LjE2NywzNTMuNSAxNjIuNSwzNTMuNUMgMTYyLjUsMzYwLjgzMyAxNjIuNSwzNjguMTY3IDE2Mi41LDM3NS41QyAxNDcuODMzLDM3NS41IDEzMy4xNjcsMzc1LjUgMTE4LjUsMzc1LjVDIDExOC41LDM2MS41IDExOC41LDM0Ny41IDExOC41LDMzMy41IFogTSAzNTEuNSwzMzMuNSBDIDM2MC4xNjcsMzMzLjUgMzY4LjgzMywzMzMuNSAzNzcuNSwzMzMuNUMgMzc3LjUsMzQ3LjUgMzc3LjUsMzYxLjUgMzc3LjUsMzc1LjVDIDM2My4xNjcsMzc1LjUgMzQ4LjgzMywzNzUuNSAzMzQuNSwzNzUuNUMgMzM0LjUsMzY4LjE2NyAzMzQuNSwzNjAuODMzIDMzNC41LDM1My41QyAzNDAuMTY3LDM1My41IDM0NS44MzMsMzUzLjUgMzUxLjUsMzUzLjVDIDM1MS41LDM0Ni44MzMgMzUxLjUsMzQwLjE2NyAzNTEuNSwzMzMuNSBaIiBmaWxsPSIjMDAwMDAwIiBzdHlsZT0ib3BhY2l0eTowLjk4OCIvPjwvZz4mI3hhOzxnPjxwYXRoIGQ9Ik0gMjIwLjUsMjMxLjUgQyAyMjQuNTE0LDIzMS4zMzQgMjI4LjUxNCwyMzEuNTAxIDIzMi41LDIzMkMgMjM2LjI5MiwyMzQuMDUzIDIzNy40NTgsMjM3LjIxOSAyMzYsMjQxLjVDIDIzNS4xNjcsMjQyLjMzMyAyMzQuMzMzLDI0My4xNjcgMjMzLjUsMjQ0QyAyMjkuMTc5LDI0NC40OTkgMjI0Ljg0NiwyNDQuNjY2IDIyMC41LDI0NC41QyAyMjAuNSwyNDAuMTY3IDIyMC41LDIzNS44MzMgMjIwLjUsMjMxLjUgWiIgZmlsbD0iIzAwMDAwMCIgc3R5bGU9Im9wYWNpdHk6MC45MTEiLz48L2c+JiN4YTs8Zz48cGF0aCBkPSJNIDI5NS41LDIzMS41IEMgMjk4LjMxNSwyMzYuNDc5IDMwMC42NDksMjQxLjgxMiAzMDIuNSwyNDcuNUMgMjk4LjIxNywyNDguNDkyIDI5My44ODQsMjQ4LjgyNiAyODkuNSwyNDguNUMgMjkxLjIxNCwyNDIuNzM3IDI5My4yMTQsMjM3LjA3IDI5NS41LDIzMS41IFoiIGZpbGw9IiMwMDAwMDAiIHN0eWxlPSJvcGFjaXR5OjAuODI0Ii8+PC9nPiYjeGE7PC9zdmc+;" parent="1" vertex="1">
                    <mxGeometry x="608.5" y="542.25" width="91.5" height="91.5" as="geometry"/>
                </mxCell>
            </root>
        </mxGraphModel>
    </diagram>
</mxfile>